<svg width="26" height="31" viewBox="0 0 26 31" fill="none" xmlns="http://www.w3.org/2000/svg">
<path fill-rule="evenodd" clip-rule="evenodd" d="M17.6967 4.88321C18.8117 3.59088 19.5633 1.79091 19.3576 0C17.7508 0.0611765 15.8068 1.02646 14.6546 2.31727C13.62 3.46278 12.7168 5.29314 12.9596 7.04889C14.752 7.18193 16.5816 6.17707 17.6967 4.88321ZM21.7161 16.25C21.7609 20.8795 25.9536 22.4195 26 22.4393C25.966 22.5479 25.3304 24.6337 23.7915 26.7901C22.46 28.6529 21.0789 30.5081 18.9029 30.5479C16.7656 30.5861 16.0774 29.3336 13.6324 29.3336C11.1888 29.3336 10.4248 30.508 8.40197 30.586C6.30178 30.6609 4.70111 28.5706 3.36027 26.7139C0.616712 22.9164 -1.47884 15.9825 1.33585 11.3026C2.73392 8.97942 5.23157 7.50603 7.9442 7.46933C10.0057 7.43109 11.9528 8.7986 13.2132 8.7986C14.4737 8.7986 16.8399 7.15449 19.3267 7.39614C20.3675 7.43743 23.2905 7.79825 25.1664 10.4303C25.0149 10.5206 21.679 12.3807 21.7161 16.25Z" fill="black"/>
</svg>
