<svg width="20" height="11" viewBox="0 0 20 11" fill="none" xmlns="http://www.w3.org/2000/svg">
<path d="M12.8994 7.34595L17.1802 3.06922V3.06519" stroke="white" stroke-miterlimit="10" stroke-linecap="round" stroke-linejoin="round"/>
<path d="M18.0362 3.42308C18.7054 3.42308 19.2478 2.88065 19.2478 2.21154C19.2478 1.54242 18.7054 1 18.0362 1C17.3671 1 16.8247 1.54242 16.8247 2.21154C16.8247 2.88065 17.3671 3.42308 18.0362 3.42308Z" stroke="white" stroke-miterlimit="10" stroke-linecap="round" stroke-linejoin="round"/>
<path d="M5.43827 5.54889L1 9.98716M11.0033 7.56409L7.32827 5.32274M7.50758 4.69274C7.50758 5.02389 7.37027 5.33082 7.15219 5.54889C7.0399 5.66157 6.90647 5.75098 6.75955 5.81198C6.61263 5.87298 6.45512 5.90439 6.29604 5.90439C6.13696 5.90439 5.97944 5.87298 5.83253 5.81198C5.68561 5.75098 5.55218 5.66157 5.43988 5.54889C5.32681 5.4369 5.23715 5.30353 5.17614 5.15654C5.11513 5.00955 5.08397 4.85189 5.0845 4.69274C5.0845 4.02236 5.62565 3.4812 6.29604 3.4812C6.96238 3.4812 7.50758 4.02236 7.50758 4.69274ZM13.2466 8.19409C13.2466 8.86447 12.7014 9.40562 12.0351 9.40562C11.7967 9.40621 11.5635 9.33636 11.3647 9.20487C11.1659 9.07337 11.0103 8.88608 10.9176 8.6665C10.8248 8.44691 10.799 8.20483 10.8433 7.97062C10.8877 7.73641 11.0002 7.52052 11.1668 7.35005C11.2792 7.23399 11.4136 7.14163 11.5623 7.07844C11.7109 7.01524 11.8707 6.98248 12.0322 6.98211C12.1937 6.98173 12.3537 7.01374 12.5026 7.07624C12.6516 7.13875 12.7865 7.23048 12.8993 7.34601C13.1134 7.56409 13.2466 7.86293 13.2466 8.19409Z" stroke="white" stroke-miterlimit="10" stroke-linecap="round" stroke-linejoin="round"/>
</svg>
