<svg width="236" height="237" viewBox="0 0 236 237" fill="none" xmlns="http://www.w3.org/2000/svg">
<path opacity="0.1" d="M159.565 194.441C176.156 184.862 188.931 166.271 196.052 148.487C203.173 130.702 204.111 111.04 198.715 92.6583C193.319 74.2765 181.903 58.2411 166.299 47.1268C150.695 36.0126 131.809 30.4642 112.674 31.3727C93.5378 32.2811 75.2624 39.5936 60.7817 52.136C46.301 64.6785 36.4551 81.7232 32.8249 100.533C29.1948 119.344 31.991 138.828 40.7645 155.858C49.5381 172.889 63.78 186.477 81.2035 194.441" stroke="url(#paint0_linear_2002_73)" stroke-width="20" stroke-linecap="round"/>
<g filter="url(#filter0_d_2002_73)">
<path d="M113.422 31.3726C94.2858 32.2811 76.0104 39.5936 61.5297 52.136C47.0489 64.6785 37.2031 81.7232 33.5729 100.533C29.9428 119.344 32.739 138.828 41.5125 155.858C50.2861 172.889 64.528 186.477 81.9515 194.441" stroke="url(#paint1_linear_2002_73)" stroke-width="20" stroke-linecap="round"/>
</g>
<g filter="url(#filter1_d_2002_73)">
<circle cx="119.815" cy="27.8147" r="1.81474" fill="white"/>
</g>
<path d="M117.604 153.467C115.937 153.467 114.436 153.136 113.101 152.473C111.766 151.81 110.696 150.901 109.891 149.745C109.086 148.59 108.646 147.274 108.57 145.797H111.979C112.112 147.113 112.708 148.202 113.769 149.064C114.839 149.916 116.117 150.342 117.604 150.342C118.797 150.342 119.858 150.063 120.786 149.504C121.723 148.945 122.457 148.178 122.988 147.203C123.527 146.218 123.797 145.105 123.797 143.865C123.797 142.596 123.518 141.464 122.959 140.47C122.41 139.466 121.652 138.675 120.686 138.098C119.72 137.52 118.617 137.227 117.377 137.217C116.487 137.208 115.573 137.345 114.635 137.629C113.698 137.904 112.926 138.259 112.32 138.694L109.024 138.297L110.786 123.978H125.899V127.103H113.74L112.718 135.683H112.888C113.485 135.209 114.233 134.816 115.132 134.504C116.032 134.191 116.97 134.035 117.945 134.035C119.725 134.035 121.311 134.461 122.703 135.314C124.105 136.156 125.203 137.312 125.999 138.78C126.804 140.247 127.206 141.924 127.206 143.808C127.206 145.664 126.79 147.321 125.956 148.78C125.132 150.228 123.996 151.374 122.547 152.217C121.098 153.05 119.451 153.467 117.604 153.467Z" fill="white"/>
<path d="M93.5795 101.364C93.5795 102.131 93.4411 102.794 93.1641 103.352C92.8871 103.911 92.5071 104.342 92.0241 104.645C91.5412 104.948 90.9896 105.099 90.3693 105.099C89.7491 105.099 89.1974 104.948 88.7145 104.645C88.2315 104.342 87.8516 103.911 87.5746 103.352C87.2976 102.794 87.1591 102.131 87.1591 101.364C87.1591 100.597 87.2976 99.9337 87.5746 99.375C87.8516 98.8163 88.2315 98.3854 88.7145 98.0824C89.1974 97.7794 89.7491 97.6278 90.3693 97.6278C90.9896 97.6278 91.5412 97.7794 92.0241 98.0824C92.5071 98.3854 92.8871 98.8163 93.1641 99.375C93.4411 99.9337 93.5795 100.597 93.5795 101.364ZM92.7273 101.364C92.7273 100.734 92.6219 100.202 92.4112 99.7692C92.2029 99.3359 91.92 99.008 91.5625 98.7855C91.2074 98.563 90.8097 98.4517 90.3693 98.4517C89.929 98.4517 89.5301 98.563 89.1726 98.7855C88.8175 99.008 88.5346 99.3359 88.3239 99.7692C88.1155 100.202 88.0114 100.734 88.0114 101.364C88.0114 101.993 88.1155 102.525 88.3239 102.958C88.5346 103.391 88.8175 103.719 89.1726 103.942C89.5301 104.164 89.929 104.276 90.3693 104.276C90.8097 104.276 91.2074 104.164 91.5625 103.942C91.92 103.719 92.2029 103.391 92.4112 102.958C92.6219 102.525 92.7273 101.993 92.7273 101.364ZM99.407 99.5455L97.3899 105H96.5376L94.5206 99.5455H95.4297L96.9354 103.892H96.9922L98.4979 99.5455H99.407ZM102.605 105.114C102.079 105.114 101.626 104.998 101.245 104.766C100.866 104.531 100.574 104.205 100.368 103.786C100.164 103.364 100.062 102.874 100.062 102.315C100.062 101.757 100.164 101.264 100.368 100.838C100.574 100.41 100.86 100.076 101.227 99.8366C101.596 99.5952 102.027 99.4744 102.52 99.4744C102.804 99.4744 103.084 99.5218 103.361 99.6165C103.638 99.7112 103.89 99.8651 104.118 100.078C104.345 100.289 104.526 100.568 104.661 100.916C104.796 101.264 104.863 101.693 104.863 102.202V102.557H100.659V101.832H104.011C104.011 101.525 103.949 101.25 103.826 101.009C103.706 100.767 103.533 100.576 103.308 100.437C103.085 100.297 102.823 100.227 102.52 100.227C102.186 100.227 101.897 100.31 101.653 100.476C101.412 100.639 101.226 100.852 101.096 101.115C100.965 101.378 100.9 101.66 100.9 101.96V102.443C100.9 102.855 100.971 103.204 101.113 103.491C101.258 103.775 101.458 103.991 101.713 104.141C101.969 104.287 102.266 104.361 102.605 104.361C102.825 104.361 103.024 104.33 103.201 104.268C103.381 104.205 103.536 104.11 103.667 103.984C103.797 103.857 103.897 103.698 103.968 103.509L104.778 103.736C104.693 104.01 104.55 104.252 104.348 104.46C104.147 104.666 103.899 104.827 103.603 104.943C103.307 105.057 102.974 105.114 102.605 105.114ZM106.138 105V99.5455H106.948V100.369H107.005C107.104 100.099 107.284 99.8804 107.544 99.7124C107.805 99.5443 108.098 99.4602 108.425 99.4602C108.487 99.4602 108.564 99.4614 108.656 99.4638C108.748 99.4661 108.818 99.4697 108.865 99.4744V100.327C108.837 100.32 108.772 100.309 108.67 100.295C108.571 100.278 108.465 100.27 108.354 100.27C108.089 100.27 107.852 100.326 107.644 100.437C107.438 100.546 107.275 100.697 107.154 100.891C107.035 101.083 106.976 101.302 106.976 101.548V105H106.138ZM111.464 105.128C111.118 105.128 110.805 105.063 110.523 104.933C110.241 104.8 110.017 104.609 109.852 104.361C109.686 104.11 109.603 103.807 109.603 103.452C109.603 103.139 109.665 102.886 109.788 102.692C109.911 102.495 110.075 102.341 110.281 102.23C110.487 102.119 110.715 102.036 110.963 101.982C111.214 101.925 111.466 101.88 111.72 101.847C112.051 101.804 112.32 101.772 112.526 101.751C112.734 101.727 112.886 101.688 112.98 101.634C113.077 101.579 113.126 101.484 113.126 101.349V101.321C113.126 100.971 113.03 100.698 112.838 100.504C112.649 100.31 112.361 100.213 111.975 100.213C111.575 100.213 111.262 100.301 111.034 100.476C110.807 100.651 110.647 100.838 110.555 101.037L109.759 100.753C109.901 100.421 110.091 100.163 110.328 99.9787C110.567 99.7917 110.827 99.6615 111.109 99.5881C111.393 99.5123 111.672 99.4744 111.947 99.4744C112.122 99.4744 112.323 99.4957 112.551 99.5384C112.78 99.5786 113.002 99.6626 113.215 99.7905C113.43 99.9183 113.609 100.111 113.751 100.369C113.893 100.627 113.964 100.973 113.964 101.406V105H113.126V104.261H113.083C113.026 104.38 112.932 104.506 112.799 104.641C112.667 104.776 112.49 104.891 112.27 104.986C112.05 105.08 111.781 105.128 111.464 105.128ZM111.592 104.375C111.923 104.375 112.203 104.31 112.43 104.18C112.66 104.049 112.832 103.881 112.948 103.675C113.067 103.469 113.126 103.253 113.126 103.026V102.259C113.09 102.301 113.012 102.34 112.892 102.376C112.773 102.409 112.636 102.438 112.48 102.464C112.326 102.488 112.175 102.509 112.029 102.528C111.884 102.545 111.767 102.559 111.677 102.571C111.459 102.599 111.256 102.646 111.066 102.71C110.879 102.771 110.728 102.865 110.612 102.99C110.498 103.113 110.441 103.281 110.441 103.494C110.441 103.786 110.549 104.006 110.764 104.155C110.982 104.302 111.258 104.375 111.592 104.375ZM116.332 97.7273V105H115.494V97.7273H116.332ZM118.705 97.7273V105H117.867V97.7273H118.705ZM126.916 100.767L126.163 100.98C126.116 100.855 126.046 100.733 125.953 100.614C125.864 100.494 125.74 100.394 125.584 100.316C125.428 100.238 125.228 100.199 124.984 100.199C124.65 100.199 124.372 100.276 124.15 100.43C123.929 100.581 123.819 100.774 123.819 101.009C123.819 101.217 123.895 101.381 124.047 101.502C124.198 101.623 124.435 101.723 124.757 101.804L125.566 102.003C126.054 102.121 126.417 102.302 126.657 102.546C126.896 102.788 127.015 103.099 127.015 103.48C127.015 103.793 126.925 104.072 126.745 104.318C126.568 104.564 126.319 104.759 126 104.901C125.68 105.043 125.308 105.114 124.885 105.114C124.328 105.114 123.868 104.993 123.503 104.751C123.139 104.51 122.908 104.157 122.811 103.693L123.606 103.494C123.682 103.788 123.825 104.008 124.036 104.155C124.249 104.302 124.527 104.375 124.87 104.375C125.261 104.375 125.571 104.292 125.801 104.126C126.033 103.958 126.149 103.757 126.149 103.523C126.149 103.333 126.083 103.175 125.95 103.047C125.817 102.917 125.614 102.82 125.339 102.756L124.43 102.543C123.931 102.424 123.564 102.241 123.329 101.992C123.097 101.741 122.981 101.428 122.981 101.051C122.981 100.743 123.068 100.471 123.24 100.234C123.416 99.9976 123.654 99.8118 123.954 99.6768C124.257 99.5419 124.6 99.4744 124.984 99.4744C125.524 99.4744 125.948 99.5928 126.255 99.8295C126.565 100.066 126.786 100.379 126.916 100.767ZM130.493 105.114C129.981 105.114 129.541 104.993 129.172 104.751C128.802 104.51 128.518 104.177 128.319 103.754C128.121 103.33 128.021 102.846 128.021 102.301C128.021 101.747 128.123 101.258 128.327 100.835C128.532 100.408 128.819 100.076 129.186 99.8366C129.555 99.5952 129.986 99.4744 130.479 99.4744C130.862 99.4744 131.208 99.5455 131.515 99.6875C131.823 99.8295 132.075 100.028 132.272 100.284C132.468 100.54 132.59 100.838 132.638 101.179H131.8C131.736 100.93 131.594 100.71 131.373 100.518C131.156 100.324 130.862 100.227 130.493 100.227C130.166 100.227 129.88 100.312 129.633 100.483C129.39 100.651 129.199 100.889 129.062 101.197C128.927 101.502 128.859 101.861 128.859 102.273C128.859 102.694 128.925 103.061 129.058 103.374C129.193 103.686 129.382 103.929 129.626 104.102C129.872 104.274 130.161 104.361 130.493 104.361C130.711 104.361 130.908 104.323 131.086 104.247C131.263 104.171 131.414 104.062 131.537 103.92C131.66 103.778 131.747 103.608 131.8 103.409H132.638C132.59 103.731 132.473 104.021 132.286 104.279C132.101 104.535 131.856 104.738 131.551 104.89C131.248 105.039 130.895 105.114 130.493 105.114ZM136.079 105.114C135.586 105.114 135.154 104.996 134.782 104.762C134.413 104.528 134.124 104.2 133.916 103.778C133.71 103.357 133.607 102.865 133.607 102.301C133.607 101.733 133.71 101.237 133.916 100.813C134.124 100.389 134.413 100.06 134.782 99.826C135.154 99.5916 135.586 99.4744 136.079 99.4744C136.571 99.4744 137.002 99.5916 137.371 99.826C137.743 100.06 138.032 100.389 138.238 100.813C138.446 101.237 138.55 101.733 138.55 102.301C138.55 102.865 138.446 103.357 138.238 103.778C138.032 104.2 137.743 104.528 137.371 104.762C137.002 104.996 136.571 105.114 136.079 105.114ZM136.079 104.361C136.453 104.361 136.76 104.265 137.002 104.073C137.243 103.881 137.422 103.629 137.538 103.317C137.654 103.004 137.712 102.666 137.712 102.301C137.712 101.937 137.654 101.597 137.538 101.282C137.422 100.967 137.243 100.713 137.002 100.518C136.76 100.324 136.453 100.227 136.079 100.227C135.705 100.227 135.397 100.324 135.155 100.518C134.914 100.713 134.735 100.967 134.619 101.282C134.503 101.597 134.445 101.937 134.445 102.301C134.445 102.666 134.503 103.004 134.619 103.317C134.735 103.629 134.914 103.881 135.155 104.073C135.397 104.265 135.705 104.361 136.079 104.361ZM139.83 105V99.5455H140.639V100.369H140.696C140.795 100.099 140.975 99.8804 141.236 99.7124C141.496 99.5443 141.79 99.4602 142.116 99.4602C142.178 99.4602 142.255 99.4614 142.347 99.4638C142.44 99.4661 142.509 99.4697 142.557 99.4744V100.327C142.528 100.32 142.463 100.309 142.362 100.295C142.262 100.278 142.157 100.27 142.045 100.27C141.78 100.27 141.544 100.326 141.335 100.437C141.129 100.546 140.966 100.697 140.845 100.891C140.727 101.083 140.668 101.302 140.668 101.548V105H139.83ZM145.671 105.114C145.146 105.114 144.692 104.998 144.311 104.766C143.932 104.531 143.64 104.205 143.434 103.786C143.23 103.364 143.129 102.874 143.129 102.315C143.129 101.757 143.23 101.264 143.434 100.838C143.64 100.41 143.926 100.076 144.293 99.8366C144.663 99.5952 145.094 99.4744 145.586 99.4744C145.87 99.4744 146.151 99.5218 146.428 99.6165C146.705 99.7112 146.957 99.8651 147.184 100.078C147.411 100.289 147.592 100.568 147.727 100.916C147.862 101.264 147.93 101.693 147.93 102.202V102.557H143.725V101.832H147.077C147.077 101.525 147.016 101.25 146.893 101.009C146.772 100.767 146.599 100.576 146.374 100.437C146.152 100.297 145.889 100.227 145.586 100.227C145.252 100.227 144.963 100.31 144.719 100.476C144.478 100.639 144.292 100.852 144.162 101.115C144.032 101.378 143.967 101.66 143.967 101.96V102.443C143.967 102.855 144.038 103.204 144.18 103.491C144.324 103.775 144.524 103.991 144.78 104.141C145.036 104.287 145.333 104.361 145.671 104.361C145.891 104.361 146.09 104.33 146.268 104.268C146.448 104.205 146.603 104.11 146.733 103.984C146.863 103.857 146.964 103.698 147.035 103.509L147.844 103.736C147.759 104.01 147.616 104.252 147.415 104.46C147.214 104.666 146.965 104.827 146.669 104.943C146.373 105.057 146.04 105.114 145.671 105.114Z" fill="white"/>
<path d="M153.011 178.792C166.495 171.007 177.009 158.959 182.897 144.545C188.785 130.131 189.714 114.169 185.537 99.1688C181.36 84.1691 172.315 70.9837 159.825 61.6872C147.334 52.3907 132.107 47.5107 116.54 47.8151C100.973 48.1195 85.9482 53.591 73.8307 63.3687C61.7132 73.1464 53.1904 86.6753 49.6032 101.827C46.0161 116.978 47.5682 132.893 54.0153 147.065C60.4624 161.238 71.4387 172.866 85.2171 180.118" stroke="#6BCCFE" stroke-linecap="round" stroke-dasharray="0 1 14 0 1 14"/>
<defs>
<filter id="filter0_d_2002_73" x="7.02466" y="11.3724" width="131.397" height="213.071" filterUnits="userSpaceOnUse" color-interpolation-filters="sRGB">
<feFlood flood-opacity="0" result="BackgroundImageFix"/>
<feColorMatrix in="SourceAlpha" type="matrix" values="0 0 0 0 0 0 0 0 0 0 0 0 0 0 0 0 0 0 127 0" result="hardAlpha"/>
<feOffset dy="5"/>
<feGaussianBlur stdDeviation="7.5"/>
<feColorMatrix type="matrix" values="0 0 0 0 0.505882 0 0 0 0 0.831373 0 0 0 0 0.996078 0 0 0 0.2 0"/>
<feBlend mode="normal" in2="BackgroundImageFix" result="effect1_dropShadow_2002_73"/>
<feBlend mode="normal" in="SourceGraphic" in2="effect1_dropShadow_2002_73" result="shape"/>
</filter>
<filter id="filter1_d_2002_73" x="117" y="25" width="5.62939" height="5.62952" filterUnits="userSpaceOnUse" color-interpolation-filters="sRGB">
<feFlood flood-opacity="0" result="BackgroundImageFix"/>
<feColorMatrix in="SourceAlpha" type="matrix" values="0 0 0 0 0 0 0 0 0 0 0 0 0 0 0 0 0 0 127 0" result="hardAlpha"/>
<feOffset/>
<feGaussianBlur stdDeviation="0.5"/>
<feColorMatrix type="matrix" values="0 0 0 0 0 0 0 0 0 0 0 0 0 0 0 0 0 0 0.15 0"/>
<feBlend mode="normal" in2="BackgroundImageFix" result="effect1_dropShadow_2002_73"/>
<feBlend mode="normal" in="SourceGraphic" in2="effect1_dropShadow_2002_73" result="shape"/>
</filter>
<linearGradient id="paint0_linear_2002_73" x1="191.545" y1="75.4187" x2="43.5433" y2="160.867" gradientUnits="userSpaceOnUse">
<stop stop-color="#7AD3FF"/>
<stop offset="1" stop-color="#4FBAF0"/>
</linearGradient>
<linearGradient id="paint1_linear_2002_73" x1="142.417" y1="81.5937" x2="34.4961" y2="143.902" gradientUnits="userSpaceOnUse">
<stop stop-color="#7AD3FF"/>
<stop offset="1" stop-color="#4FBAF0"/>
</linearGradient>
</defs>
</svg>
