<svg width="341" height="86" viewBox="0 0 341 86" fill="none" xmlns="http://www.w3.org/2000/svg">
<g filter="url(#filter0_d_13_10)">
<rect x="14" y="18" width="144" height="16" rx="8" fill="#010314"/>
<rect x="14.75" y="18.75" width="142.5" height="14.5" rx="7.25" stroke="url(#paint0_linear_13_10)" stroke-width="1.5"/>
</g>
<g filter="url(#filter1_d_13_10)">
<rect x="14" y="58" width="144" height="16" rx="8" fill="#010314"/>
<rect x="14.75" y="58.75" width="142.5" height="14.5" rx="7.25" stroke="url(#paint1_linear_13_10)" stroke-width="1.5"/>
</g>
<rect x="15" y="19" width="99" height="14" rx="7" fill="url(#paint2_linear_13_10)"/>
<circle cx="111" cy="26" r="7" fill="#D9D9D9"/>
<rect x="15" y="59" width="87" height="14" rx="7" fill="url(#paint3_linear_13_10)"/>
<g filter="url(#filter2_d_13_10)">
<rect x="181" y="18" width="144" height="16" rx="8" fill="#010314"/>
<rect x="181.75" y="18.75" width="142.5" height="14.5" rx="7.25" stroke="url(#paint4_linear_13_10)" stroke-width="1.5"/>
</g>
<g filter="url(#filter3_d_13_10)">
<rect x="186.105" y="59.1055" width="144" height="16" rx="8" fill="#010314"/>
<rect x="186.855" y="59.8555" width="142.5" height="14.5" rx="7.25" stroke="url(#paint5_linear_13_10)" stroke-width="1.5"/>
</g>
<rect x="187.105" y="60.1055" width="99" height="14" rx="7" fill="url(#paint6_linear_13_10)"/>
<circle cx="280" cy="67" r="7" fill="#D9D9D9"/>
<path d="M233.124 70L236.377 63.5653V63.5085H232.627V62.7273H237.286V63.5511L234.047 70H233.124Z" fill="white"/>
<rect x="182" y="19" width="55" height="14" rx="7" fill="url(#paint7_linear_13_10)"/>
<path d="M191.835 5.54545C191.792 5.18561 191.619 4.90625 191.316 4.70739C191.013 4.50852 190.641 4.40909 190.201 4.40909C189.879 4.40909 189.597 4.46117 189.356 4.56534C189.117 4.66951 188.93 4.81274 188.795 4.99503C188.662 5.17732 188.596 5.38447 188.596 5.61648C188.596 5.81061 188.642 5.97751 188.734 6.11719C188.829 6.2545 188.95 6.36932 189.097 6.46165C189.243 6.55161 189.397 6.62618 189.558 6.68537C189.719 6.74219 189.867 6.78835 190.002 6.82386L190.741 7.02273C190.93 7.07244 191.141 7.1411 191.373 7.22869C191.607 7.31629 191.831 7.43584 192.044 7.58736C192.259 7.73651 192.437 7.92827 192.577 8.16264C192.716 8.39702 192.786 8.68466 192.786 9.02557C192.786 9.41856 192.683 9.77367 192.477 10.0909C192.274 10.4081 191.975 10.6603 191.582 10.8473C191.192 11.0343 190.717 11.1278 190.158 11.1278C189.638 11.1278 189.187 11.0438 188.805 10.8757C188.427 10.7076 188.128 10.4732 187.911 10.1726C187.695 9.87192 187.573 9.52273 187.545 9.125H188.454C188.478 9.39962 188.57 9.62689 188.731 9.80682C188.894 9.98437 189.1 10.117 189.349 10.2045C189.6 10.2898 189.87 10.3324 190.158 10.3324C190.495 10.3324 190.796 10.2779 191.064 10.169C191.331 10.0578 191.543 9.90388 191.7 9.70739C191.856 9.50852 191.934 9.27652 191.934 9.01136C191.934 8.76989 191.866 8.57339 191.732 8.42188C191.597 8.27036 191.419 8.14725 191.199 8.05256C190.979 7.95786 190.741 7.875 190.485 7.80398L189.59 7.5483C189.022 7.38494 188.572 7.15175 188.241 6.84872C187.909 6.54569 187.744 6.14915 187.744 5.65909C187.744 5.25189 187.854 4.89678 188.074 4.59375C188.296 4.28835 188.595 4.05161 188.969 3.88352C189.345 3.71307 189.765 3.62784 190.229 3.62784C190.698 3.62784 191.115 3.71188 191.479 3.87997C191.844 4.04569 192.133 4.27296 192.346 4.56179C192.561 4.85062 192.675 5.1785 192.687 5.54545H191.835ZM196.407 11.1136C195.882 11.1136 195.429 10.9976 195.047 10.7656C194.669 10.5312 194.376 10.2045 194.17 9.78551C193.967 9.36411 193.865 8.87405 193.865 8.31534C193.865 7.75663 193.967 7.2642 194.17 6.83807C194.376 6.40956 194.663 6.07576 195.03 5.83665C195.399 5.59517 195.83 5.47443 196.322 5.47443C196.606 5.47443 196.887 5.52178 197.164 5.61648C197.441 5.71117 197.693 5.86506 197.92 6.07812C198.148 6.28883 198.329 6.56818 198.464 6.91619C198.599 7.2642 198.666 7.69271 198.666 8.2017V8.55682H194.461V7.83239H197.814C197.814 7.52462 197.752 7.25 197.629 7.00852C197.508 6.76705 197.336 6.57647 197.111 6.43679C196.888 6.29711 196.625 6.22727 196.322 6.22727C195.988 6.22727 195.7 6.31013 195.456 6.47585C195.214 6.6392 195.028 6.85227 194.898 7.11506C194.768 7.37784 194.703 7.65956 194.703 7.96023V8.44318C194.703 8.85511 194.774 9.20431 194.916 9.49077C195.06 9.77486 195.26 9.99148 195.516 10.1406C195.772 10.2874 196.069 10.3608 196.407 10.3608C196.628 10.3608 196.827 10.33 197.004 10.2685C197.184 10.2045 197.339 10.1098 197.469 9.98438C197.599 9.85653 197.7 9.69792 197.771 9.50852L198.581 9.7358C198.496 10.0104 198.352 10.2519 198.151 10.4602C197.95 10.6662 197.701 10.8272 197.405 10.9432C197.109 11.0568 196.777 11.1136 196.407 11.1136ZM200.779 7.71875V11H199.941V5.54545H200.751V6.39773H200.822C200.949 6.12074 201.144 5.8982 201.404 5.73011C201.664 5.55966 202.001 5.47443 202.412 5.47443C202.782 5.47443 203.105 5.55019 203.382 5.7017C203.659 5.85085 203.874 6.07812 204.028 6.38352C204.182 6.68655 204.259 7.07008 204.259 7.53409V11H203.421V7.59091C203.421 7.16241 203.31 6.8286 203.087 6.58949C202.865 6.34801 202.559 6.22727 202.171 6.22727C201.903 6.22727 201.664 6.28527 201.454 6.40128C201.245 6.51728 201.081 6.68655 200.96 6.90909C200.839 7.13163 200.779 7.40152 200.779 7.71875ZM208.163 5.54545V6.25568H205.336V5.54545H208.163ZM206.16 4.23864H206.998V9.4375C206.998 9.67424 207.032 9.8518 207.101 9.97017C207.172 10.0862 207.262 10.1643 207.371 10.2045C207.482 10.2424 207.599 10.2614 207.722 10.2614C207.815 10.2614 207.89 10.2566 207.95 10.2472C208.009 10.2353 208.056 10.2259 208.092 10.2188L208.262 10.9716C208.205 10.9929 208.126 11.0142 208.024 11.0355C207.922 11.0592 207.793 11.071 207.637 11.071C207.4 11.071 207.168 11.0201 206.941 10.9183C206.716 10.8165 206.529 10.6615 206.38 10.4531C206.233 10.2448 206.16 9.98201 206.16 9.66477V4.23864ZM209.423 11V5.54545H210.261V11H209.423ZM209.849 4.63636C209.686 4.63636 209.545 4.58073 209.427 4.46946C209.311 4.35819 209.253 4.22443 209.253 4.06818C209.253 3.91193 209.311 3.77817 209.427 3.6669C209.545 3.55563 209.686 3.5 209.849 3.5C210.013 3.5 210.152 3.55563 210.268 3.6669C210.387 3.77817 210.446 3.91193 210.446 4.06818C210.446 4.22443 210.387 4.35819 210.268 4.46946C210.152 4.58073 210.013 4.63636 209.849 4.63636ZM211.796 11V5.54545H212.606V6.39773H212.677C212.791 6.10653 212.974 5.88045 213.227 5.71946C213.481 5.55611 213.785 5.47443 214.14 5.47443C214.5 5.47443 214.799 5.55611 215.039 5.71946C215.28 5.88045 215.468 6.10653 215.603 6.39773H215.66C215.8 6.116 216.009 5.89228 216.289 5.72656C216.568 5.55848 216.903 5.47443 217.294 5.47443C217.781 5.47443 218.18 5.62713 218.49 5.93253C218.8 6.23556 218.955 6.70786 218.955 7.34943V11H218.117V7.34943C218.117 6.94697 218.007 6.65933 217.787 6.48651C217.567 6.31368 217.308 6.22727 217.009 6.22727C216.626 6.22727 216.329 6.34328 216.118 6.57528C215.907 6.80492 215.802 7.09612 215.802 7.44886V11H214.95V7.2642C214.95 6.95407 214.849 6.70431 214.648 6.51491C214.447 6.32315 214.187 6.22727 213.87 6.22727C213.652 6.22727 213.449 6.28527 213.259 6.40128C213.072 6.51728 212.921 6.67827 212.805 6.88423C212.691 7.08783 212.634 7.32339 212.634 7.59091V11H211.796ZM222.775 11.1136C222.249 11.1136 221.796 10.9976 221.415 10.7656C221.036 10.5312 220.743 10.2045 220.537 9.78551C220.334 9.36411 220.232 8.87405 220.232 8.31534C220.232 7.75663 220.334 7.2642 220.537 6.83807C220.743 6.40956 221.03 6.07576 221.397 5.83665C221.766 5.59517 222.197 5.47443 222.689 5.47443C222.974 5.47443 223.254 5.52178 223.531 5.61648C223.808 5.71117 224.06 5.86506 224.287 6.07812C224.515 6.28883 224.696 6.56818 224.831 6.91619C224.966 7.2642 225.033 7.69271 225.033 8.2017V8.55682H220.829V7.83239H224.181C224.181 7.52462 224.119 7.25 223.996 7.00852C223.876 6.76705 223.703 6.57647 223.478 6.43679C223.255 6.29711 222.992 6.22727 222.689 6.22727C222.356 6.22727 222.067 6.31013 221.823 6.47585C221.581 6.6392 221.396 6.85227 221.265 7.11506C221.135 7.37784 221.07 7.65956 221.07 7.96023V8.44318C221.07 8.85511 221.141 9.20431 221.283 9.49077C221.428 9.77486 221.628 9.99148 221.883 10.1406C222.139 10.2874 222.436 10.3608 222.775 10.3608C222.995 10.3608 223.194 10.33 223.371 10.2685C223.551 10.2045 223.706 10.1098 223.836 9.98438C223.967 9.85653 224.067 9.69792 224.138 9.50852L224.948 9.7358C224.863 10.0104 224.72 10.2519 224.518 10.4602C224.317 10.6662 224.068 10.8272 223.773 10.9432C223.477 11.0568 223.144 11.1136 222.775 11.1136ZM227.146 7.71875V11H226.308V5.54545H227.118V6.39773H227.189C227.317 6.12074 227.511 5.8982 227.771 5.73011C228.032 5.55966 228.368 5.47443 228.78 5.47443C229.149 5.47443 229.472 5.55019 229.749 5.7017C230.026 5.85085 230.242 6.07812 230.395 6.38352C230.549 6.68655 230.626 7.07008 230.626 7.53409V11H229.788V7.59091C229.788 7.16241 229.677 6.8286 229.454 6.58949C229.232 6.34801 228.926 6.22727 228.538 6.22727C228.271 6.22727 228.032 6.28527 227.821 6.40128C227.613 6.51728 227.448 6.68655 227.327 6.90909C227.206 7.13163 227.146 7.40152 227.146 7.71875ZM234.53 5.54545V6.25568H231.703V5.54545H234.53ZM232.527 4.23864H233.365V9.4375C233.365 9.67424 233.399 9.8518 233.468 9.97017C233.539 10.0862 233.629 10.1643 233.738 10.2045C233.849 10.2424 233.966 10.2614 234.089 10.2614C234.182 10.2614 234.258 10.2566 234.317 10.2472C234.376 10.2353 234.423 10.2259 234.459 10.2188L234.629 10.9716C234.572 10.9929 234.493 11.0142 234.391 11.0355C234.29 11.0592 234.161 11.071 234.004 11.071C233.768 11.071 233.536 11.0201 233.308 10.9183C233.083 10.8165 232.896 10.6615 232.747 10.4531C232.6 10.2448 232.527 9.98201 232.527 9.66477V4.23864Z" fill="white"/>
<path d="M197.502 46H196.621C196.569 45.7467 196.478 45.5241 196.347 45.3324C196.22 45.1406 196.063 44.9796 195.879 44.8494C195.696 44.7169 195.494 44.6174 195.271 44.5511C195.049 44.4848 194.817 44.4517 194.575 44.4517C194.135 44.4517 193.736 44.563 193.379 44.7855C193.024 45.008 192.741 45.3359 192.53 45.7692C192.322 46.2024 192.217 46.7339 192.217 47.3636C192.217 47.9934 192.322 48.5249 192.53 48.9581C192.741 49.3913 193.024 49.7192 193.379 49.9418C193.736 50.1643 194.135 50.2756 194.575 50.2756C194.817 50.2756 195.049 50.2424 195.271 50.1761C195.494 50.1098 195.696 50.0116 195.879 49.8814C196.063 49.7488 196.22 49.5866 196.347 49.3949C196.478 49.2008 196.569 48.9782 196.621 48.7273H197.502C197.435 49.099 197.314 49.4316 197.139 49.7251C196.964 50.0187 196.746 50.2685 196.486 50.4744C196.225 50.678 195.933 50.8331 195.609 50.9396C195.287 51.0462 194.942 51.0994 194.575 51.0994C193.955 51.0994 193.403 50.9479 192.921 50.6449C192.438 50.3419 192.058 49.911 191.781 49.3523C191.504 48.7936 191.365 48.1307 191.365 47.3636C191.365 46.5966 191.504 45.9337 191.781 45.375C192.058 44.8163 192.438 44.3854 192.921 44.0824C193.403 43.7794 193.955 43.6278 194.575 43.6278C194.942 43.6278 195.287 43.6811 195.609 43.7876C195.933 43.8942 196.225 44.0504 196.486 44.2564C196.746 44.46 196.964 44.7086 197.139 45.0021C197.314 45.2933 197.435 45.6259 197.502 46ZM199.649 47.7188V51H198.811V43.7273H199.649V46.3977H199.72C199.848 46.116 200.04 45.8923 200.295 45.7266C200.553 45.5585 200.897 45.4744 201.325 45.4744C201.697 45.4744 202.022 45.549 202.302 45.6982C202.581 45.8449 202.798 46.071 202.952 46.3764C203.108 46.6795 203.186 47.0653 203.186 47.5341V51H202.348V47.5909C202.348 47.1577 202.235 46.8227 202.011 46.5859C201.788 46.3468 201.479 46.2273 201.084 46.2273C200.809 46.2273 200.563 46.2853 200.345 46.4013C200.13 46.5173 199.959 46.6866 199.834 46.9091C199.711 47.1316 199.649 47.4015 199.649 47.7188ZM206.324 51.1278C205.979 51.1278 205.665 51.0627 205.383 50.9325C205.102 50.8 204.878 50.6094 204.712 50.3608C204.546 50.1098 204.464 49.8068 204.464 49.4517C204.464 49.1392 204.525 48.8859 204.648 48.6918C204.771 48.4953 204.936 48.3414 205.142 48.2301C205.348 48.1188 205.575 48.036 205.824 47.9815C206.075 47.9247 206.327 47.8797 206.58 47.8466C206.911 47.804 207.18 47.772 207.386 47.7507C207.594 47.727 207.746 47.688 207.841 47.6335C207.938 47.5791 207.986 47.4844 207.986 47.3494V47.321C207.986 46.9706 207.89 46.6984 207.699 46.5043C207.509 46.3101 207.222 46.2131 206.836 46.2131C206.436 46.2131 206.122 46.3007 205.895 46.4759C205.667 46.651 205.508 46.8381 205.415 47.0369L204.62 46.7528C204.762 46.4214 204.951 46.1634 205.188 45.9787C205.427 45.7917 205.687 45.6615 205.969 45.5881C206.253 45.5123 206.533 45.4744 206.807 45.4744C206.982 45.4744 207.184 45.4957 207.411 45.5384C207.641 45.5786 207.862 45.6626 208.075 45.7905C208.29 45.9183 208.469 46.1113 208.611 46.3693C208.753 46.6274 208.824 46.973 208.824 47.4062V51H207.986V50.2614H207.944C207.887 50.3797 207.792 50.5064 207.66 50.6413C207.527 50.7763 207.351 50.8911 207.13 50.9858C206.91 51.0805 206.642 51.1278 206.324 51.1278ZM206.452 50.375C206.784 50.375 207.063 50.3099 207.29 50.1797C207.52 50.0495 207.693 49.8814 207.809 49.6754C207.927 49.4695 207.986 49.2528 207.986 49.0256V48.2585C207.951 48.3011 207.873 48.3402 207.752 48.3757C207.633 48.4089 207.496 48.4384 207.34 48.4645C207.186 48.4882 207.036 48.5095 206.889 48.5284C206.745 48.545 206.627 48.5592 206.537 48.571C206.32 48.5994 206.116 48.6456 205.927 48.7095C205.74 48.7711 205.588 48.8646 205.472 48.9901C205.358 49.1132 205.302 49.2812 205.302 49.4943C205.302 49.7855 205.409 50.0057 205.625 50.1548C205.843 50.3016 206.118 50.375 206.452 50.375ZM210.354 51V45.5455H211.164V46.3693H211.22C211.32 46.0994 211.5 45.8804 211.76 45.7124C212.021 45.5443 212.314 45.4602 212.641 45.4602C212.702 45.4602 212.779 45.4614 212.872 45.4638C212.964 45.4661 213.034 45.4697 213.081 45.4744V46.3267C213.053 46.3196 212.988 46.3089 212.886 46.2947C212.786 46.2782 212.681 46.2699 212.57 46.2699C212.305 46.2699 212.068 46.3255 211.86 46.4368C211.654 46.5457 211.49 46.6972 211.37 46.8913C211.251 47.0831 211.192 47.3021 211.192 47.5483V51H210.354ZM214.075 51V45.5455H214.913V51H214.075ZM214.501 44.6364C214.337 44.6364 214.197 44.5807 214.078 44.4695C213.962 44.3582 213.904 44.2244 213.904 44.0682C213.904 43.9119 213.962 43.7782 214.078 43.6669C214.197 43.5556 214.337 43.5 214.501 43.5C214.664 43.5 214.804 43.5556 214.92 43.6669C215.038 43.7782 215.097 43.9119 215.097 44.0682C215.097 44.2244 215.038 44.3582 214.92 44.4695C214.804 44.5807 214.664 44.6364 214.501 44.6364ZM220.311 46.767L219.559 46.9801C219.511 46.8546 219.441 46.7327 219.349 46.6143C219.259 46.4936 219.136 46.3942 218.98 46.3161C218.823 46.2379 218.623 46.1989 218.38 46.1989C218.046 46.1989 217.768 46.2758 217.545 46.4297C217.325 46.5812 217.215 46.7741 217.215 47.0085C217.215 47.2169 217.291 47.3814 217.442 47.5021C217.594 47.6229 217.83 47.7235 218.152 47.804L218.962 48.0028C219.45 48.1212 219.813 48.3023 220.052 48.5462C220.291 48.7876 220.411 49.099 220.411 49.4801C220.411 49.7926 220.321 50.072 220.141 50.3182C219.963 50.5644 219.715 50.7585 219.395 50.9006C219.076 51.0426 218.704 51.1136 218.28 51.1136C217.724 51.1136 217.263 50.9929 216.899 50.7514C216.534 50.5099 216.303 50.1572 216.206 49.6932L217.002 49.4943C217.077 49.7879 217.221 50.008 217.431 50.1548C217.644 50.3016 217.923 50.375 218.266 50.375C218.657 50.375 218.967 50.2921 219.196 50.1264C219.428 49.9583 219.544 49.7571 219.544 49.5227C219.544 49.3333 219.478 49.1747 219.345 49.0469C219.213 48.9167 219.009 48.8196 218.735 48.7557L217.826 48.5426C217.326 48.4242 216.959 48.2408 216.725 47.9922C216.493 47.7412 216.377 47.4276 216.377 47.0511C216.377 46.7434 216.463 46.4711 216.636 46.2344C216.811 45.9976 217.049 45.8118 217.35 45.6768C217.653 45.5419 217.996 45.4744 218.38 45.4744C218.919 45.4744 219.343 45.5928 219.651 45.8295C219.961 46.0663 220.181 46.3788 220.311 46.767ZM221.672 51V45.5455H222.482V46.3977H222.553C222.667 46.1065 222.85 45.8804 223.103 45.7195C223.357 45.5561 223.661 45.4744 224.016 45.4744C224.376 45.4744 224.675 45.5561 224.915 45.7195C225.156 45.8804 225.344 46.1065 225.479 46.3977H225.536C225.676 46.116 225.885 45.8923 226.165 45.7266C226.444 45.5585 226.779 45.4744 227.169 45.4744C227.657 45.4744 228.056 45.6271 228.366 45.9325C228.676 46.2356 228.831 46.7079 228.831 47.3494V51H227.993V47.3494C227.993 46.947 227.883 46.6593 227.663 46.4865C227.443 46.3137 227.184 46.2273 226.885 46.2273C226.502 46.2273 226.205 46.3433 225.994 46.5753C225.783 46.8049 225.678 47.0961 225.678 47.4489V51H224.826V47.2642C224.826 46.9541 224.725 46.7043 224.524 46.5149C224.323 46.3232 224.063 46.2273 223.746 46.2273C223.528 46.2273 223.325 46.2853 223.135 46.4013C222.948 46.5173 222.797 46.6783 222.681 46.8842C222.567 47.0878 222.51 47.3234 222.51 47.5909V51H221.672ZM231.969 51.1278C231.623 51.1278 231.31 51.0627 231.028 50.9325C230.746 50.8 230.522 50.6094 230.357 50.3608C230.191 50.1098 230.108 49.8068 230.108 49.4517C230.108 49.1392 230.17 48.8859 230.293 48.6918C230.416 48.4953 230.58 48.3414 230.786 48.2301C230.992 48.1188 231.22 48.036 231.468 47.9815C231.719 47.9247 231.971 47.8797 232.225 47.8466C232.556 47.804 232.825 47.772 233.031 47.7507C233.239 47.727 233.39 47.688 233.485 47.6335C233.582 47.5791 233.631 47.4844 233.631 47.3494V47.321C233.631 46.9706 233.535 46.6984 233.343 46.5043C233.154 46.3101 232.866 46.2131 232.48 46.2131C232.08 46.2131 231.766 46.3007 231.539 46.4759C231.312 46.651 231.152 46.8381 231.06 47.0369L230.264 46.7528C230.406 46.4214 230.596 46.1634 230.832 45.9787C231.072 45.7917 231.332 45.6615 231.614 45.5881C231.898 45.5123 232.177 45.4744 232.452 45.4744C232.627 45.4744 232.828 45.4957 233.055 45.5384C233.285 45.5786 233.506 45.6626 233.72 45.7905C233.935 45.9183 234.114 46.1113 234.256 46.3693C234.398 46.6274 234.469 46.973 234.469 47.4062V51H233.631V50.2614H233.588C233.531 50.3797 233.437 50.5064 233.304 50.6413C233.171 50.7763 232.995 50.8911 232.775 50.9858C232.555 51.0805 232.286 51.1278 231.969 51.1278ZM232.097 50.375C232.428 50.375 232.707 50.3099 232.935 50.1797C233.164 50.0495 233.337 49.8814 233.453 49.6754C233.572 49.4695 233.631 49.2528 233.631 49.0256V48.2585C233.595 48.3011 233.517 48.3402 233.396 48.3757C233.278 48.4089 233.141 48.4384 232.984 48.4645C232.831 48.4882 232.68 48.5095 232.533 48.5284C232.389 48.545 232.272 48.5592 232.182 48.571C231.964 48.5994 231.761 48.6456 231.571 48.7095C231.384 48.7711 231.233 48.8646 231.117 48.9901C231.003 49.1132 230.946 49.2812 230.946 49.4943C230.946 49.7855 231.054 50.0057 231.269 50.1548C231.487 50.3016 231.763 50.375 232.097 50.375Z" fill="white"/>
<circle cx="95" cy="66" r="7" fill="#D9D9D9"/>
<circle cx="232" cy="26" r="7" fill="#D9D9D9"/>
<path d="M57.9836 70.0994C57.5669 70.0994 57.1917 70.0166 56.8579 69.8509C56.5241 69.6851 56.2565 69.4579 56.0553 69.169C55.8541 68.8802 55.744 68.5511 55.7251 68.1818H56.5773C56.6105 68.5109 56.7596 68.7831 57.0248 68.9986C57.2923 69.2116 57.6119 69.3182 57.9836 69.3182C58.2819 69.3182 58.547 69.2483 58.779 69.1087C59.0134 68.969 59.1969 68.7772 59.3295 68.5334C59.4644 68.2872 59.5319 68.009 59.5319 67.6989C59.5319 67.3816 59.462 67.0987 59.3224 66.8501C59.185 66.5992 58.9957 66.4015 58.7542 66.2571C58.5127 66.1127 58.2369 66.0393 57.9268 66.0369C57.7042 66.0346 57.4758 66.0689 57.2414 66.1399C57.007 66.2086 56.8141 66.2973 56.6626 66.4062L55.8387 66.3068L56.279 62.7273H60.0574V63.5085H57.0177L56.762 65.6534H56.8046C56.9537 65.535 57.1408 65.4368 57.3657 65.3587C57.5906 65.2805 57.825 65.2415 58.0688 65.2415C58.5139 65.2415 58.9104 65.348 59.2584 65.5611C59.6088 65.7718 59.8834 66.0606 60.0823 66.4276C60.2835 66.7945 60.3841 67.2135 60.3841 67.6847C60.3841 68.1487 60.28 68.563 60.0716 68.9276C59.8657 69.2898 59.5816 69.5762 59.2194 69.7869C58.8572 69.9953 58.4452 70.0994 57.9836 70.0994Z" fill="white"/>
<path d="M206.725 29V28.3608L209.126 25.733C209.408 25.4252 209.64 25.1577 209.822 24.9304C210.004 24.7008 210.139 24.4853 210.227 24.2841C210.317 24.0805 210.362 23.8674 210.362 23.6449C210.362 23.3892 210.3 23.1679 210.177 22.9808C210.056 22.7938 209.891 22.6494 209.68 22.5476C209.469 22.4458 209.233 22.3949 208.97 22.3949C208.69 22.3949 208.447 22.4529 208.238 22.5689C208.032 22.6825 207.873 22.8423 207.759 23.0483C207.648 23.2543 207.592 23.4957 207.592 23.7727H206.754C206.754 23.3466 206.852 22.9725 207.049 22.6506C207.245 22.3286 207.513 22.0777 207.851 21.8977C208.192 21.7178 208.574 21.6278 208.998 21.6278C209.424 21.6278 209.802 21.7178 210.131 21.8977C210.46 22.0777 210.718 22.3203 210.905 22.6257C211.092 22.9311 211.186 23.2708 211.186 23.6449C211.186 23.9124 211.137 24.174 211.04 24.4297C210.945 24.683 210.78 24.9659 210.543 25.2784C210.309 25.5885 209.983 25.9673 209.566 26.4148L207.933 28.1619V28.2188H211.314V29H206.725Z" fill="white"/>
<path d="M23.8638 3.50852V2.72727H29.3184V3.50852H27.0314V10H26.1507V3.50852H23.8638ZM29.9975 10V4.54545H30.8072V5.36932H30.864C30.9634 5.09943 31.1433 4.88045 31.4038 4.71236C31.6642 4.54427 31.9577 4.46023 32.2844 4.46023C32.346 4.46023 32.4229 4.46141 32.5153 4.46378C32.6076 4.46615 32.6774 4.4697 32.7248 4.47443V5.3267C32.6964 5.3196 32.6313 5.30895 32.5295 5.29474C32.43 5.27817 32.3247 5.26989 32.2134 5.26989C31.9483 5.26989 31.7115 5.32552 31.5032 5.43679C31.2972 5.54569 31.1339 5.69721 31.0131 5.89134C30.8948 6.0831 30.8356 6.30208 30.8356 6.5483V10H29.9975ZM37.1557 7.76989V4.54545H37.9938V10H37.1557V9.0767H37.0989C36.9711 9.35369 36.7722 9.58925 36.5023 9.78338C36.2324 9.97514 35.8915 10.071 35.4796 10.071C35.1387 10.071 34.8356 9.99645 34.5705 9.8473C34.3053 9.69579 34.097 9.46851 33.9455 9.16548C33.794 8.86009 33.7182 8.47538 33.7182 8.01136V4.54545H34.5563V7.95455C34.5563 8.35227 34.6676 8.66951 34.8901 8.90625C35.115 9.14299 35.4015 9.26136 35.7495 9.26136C35.9578 9.26136 36.1697 9.2081 36.3851 9.10156C36.6029 8.99503 36.7852 8.83168 36.932 8.61151C37.0811 8.39134 37.1557 8.1108 37.1557 7.76989ZM43.3924 5.76705L42.6396 5.98011C42.5922 5.85464 42.5224 5.73272 42.43 5.61435C42.3401 5.49361 42.217 5.39418 42.0607 5.31605C41.9045 5.23793 41.7044 5.19886 41.4606 5.19886C41.1268 5.19886 40.8486 5.2758 40.6261 5.42969C40.4059 5.5812 40.2958 5.77415 40.2958 6.00852C40.2958 6.21686 40.3716 6.38139 40.5231 6.50213C40.6746 6.62287 40.9113 6.72348 41.2333 6.80398L42.043 7.00284C42.5307 7.12121 42.8941 7.30232 43.1332 7.54616C43.3723 7.78764 43.4918 8.09896 43.4918 8.48011C43.4918 8.79261 43.4019 9.07197 43.2219 9.31818C43.0444 9.56439 42.7958 9.75852 42.4762 9.90057C42.1566 10.0426 41.7849 10.1136 41.3612 10.1136C40.8048 10.1136 40.3443 9.9929 39.9798 9.75142C39.6152 9.50994 39.3844 9.1572 39.2873 8.69318L40.0827 8.49432C40.1585 8.78788 40.3017 9.00805 40.5124 9.15483C40.7255 9.30161 41.0037 9.375 41.3469 9.375C41.7376 9.375 42.0477 9.29214 42.2773 9.12642C42.5094 8.95833 42.6254 8.7571 42.6254 8.52273C42.6254 8.33333 42.5591 8.17472 42.4265 8.04688C42.2939 7.91667 42.0903 7.8196 41.8157 7.75568L40.9066 7.54261C40.4071 7.42424 40.0401 7.24077 39.8058 6.99219C39.5737 6.74124 39.4577 6.42756 39.4577 6.05114C39.4577 5.74337 39.5442 5.47112 39.717 5.23438C39.8922 4.99763 40.1301 4.81179 40.4308 4.67685C40.7338 4.5419 41.0771 4.47443 41.4606 4.47443C42.0004 4.47443 42.4241 4.5928 42.7319 4.82955C43.042 5.06629 43.2622 5.37879 43.3924 5.76705ZM47.1255 4.54545V5.25568H44.2988V4.54545H47.1255ZM45.1227 3.23864H45.9608V8.4375C45.9608 8.67424 45.9951 8.8518 46.0637 8.97017C46.1348 9.08617 46.2247 9.1643 46.3336 9.20455C46.4449 9.24242 46.5621 9.26136 46.6852 9.26136C46.7775 9.26136 46.8533 9.25663 46.9125 9.24716C46.9717 9.23532 47.019 9.22585 47.0545 9.21875L47.225 9.97159C47.1681 9.9929 47.0888 10.0142 46.987 10.0355C46.8852 10.0592 46.7562 10.071 46.6 10.071C46.3632 10.071 46.1312 10.0201 45.9039 9.91832C45.679 9.81652 45.492 9.66146 45.3429 9.45312C45.1961 9.24479 45.1227 8.98201 45.1227 8.66477V3.23864Z" fill="white"/>
<path d="M62.1237 31L65.3765 24.5653V24.5085H61.6265V23.7273H66.2856V24.5511L63.047 31H62.1237Z" fill="white"/>
<path d="M20.6678 52V44.7273H25.057V45.5085H21.5485V47.9659H24.8297V48.7472H21.5485V51.2188H25.1138V52H20.6678ZM26.5307 52V46.5455H27.3404V47.3977H27.4114C27.525 47.1065 27.7085 46.8804 27.9618 46.7195C28.2151 46.5561 28.5194 46.4744 28.8745 46.4744C29.2343 46.4744 29.5338 46.5561 29.7729 46.7195C30.0144 46.8804 30.2026 47.1065 30.3375 47.3977H30.3944C30.534 47.116 30.7435 46.8923 31.0229 46.7266C31.3023 46.5585 31.6373 46.4744 32.0279 46.4744C32.5156 46.4744 32.9145 46.6271 33.2246 46.9325C33.5347 47.2356 33.6898 47.7079 33.6898 48.3494V52H32.8517V48.3494C32.8517 47.947 32.7417 47.6593 32.5215 47.4865C32.3013 47.3137 32.0421 47.2273 31.7438 47.2273C31.3603 47.2273 31.0632 47.3433 30.8525 47.5753C30.6417 47.8049 30.5364 48.0961 30.5364 48.4489V52H29.6841V48.2642C29.6841 47.9541 29.5835 47.7043 29.3823 47.5149C29.181 47.3232 28.9218 47.2273 28.6046 47.2273C28.3868 47.2273 28.1832 47.2853 27.9938 47.4013C27.8068 47.5173 27.6552 47.6783 27.5392 47.8842C27.4256 48.0878 27.3688 48.3234 27.3688 48.5909V52H26.5307ZM35.2221 54.0455V46.5455H36.0318V47.4119H36.1312C36.1928 47.3172 36.278 47.1965 36.3869 47.0497C36.4982 46.9006 36.6568 46.768 36.8627 46.652C37.0711 46.5336 37.3528 46.4744 37.7079 46.4744C38.1672 46.4744 38.572 46.5893 38.9224 46.8189C39.2728 47.0485 39.5462 47.3741 39.7427 47.7955C39.9392 48.2169 40.0375 48.714 40.0375 49.2869C40.0375 49.8646 39.9392 50.3653 39.7427 50.7891C39.5462 51.2105 39.274 51.5372 38.926 51.7692C38.5779 51.9988 38.1767 52.1136 37.7221 52.1136C37.3717 52.1136 37.0912 52.0556 36.8805 51.9396C36.6698 51.8213 36.5076 51.6875 36.394 51.5384C36.2804 51.3868 36.1928 51.2614 36.1312 51.1619H36.0602V54.0455H35.2221ZM36.046 49.2727C36.046 49.6847 36.1064 50.0481 36.2271 50.3629C36.3478 50.6754 36.5242 50.9205 36.7562 51.098C36.9882 51.2732 37.2723 51.3608 37.6085 51.3608C37.9589 51.3608 38.2512 51.2685 38.4856 51.0838C38.7224 50.8968 38.8999 50.6458 39.0183 50.331C39.139 50.0137 39.1994 49.661 39.1994 49.2727C39.1994 48.8892 39.1402 48.5436 39.0218 48.2358C38.9058 47.9257 38.7295 47.6806 38.4927 47.5007C38.2583 47.3184 37.9636 47.2273 37.6085 47.2273C37.2676 47.2273 36.9811 47.3137 36.7491 47.4865C36.5171 47.657 36.3419 47.8961 36.2235 48.2038C36.1052 48.5092 36.046 48.8655 36.046 49.2727ZM42.921 52.1278C42.5753 52.1278 42.2617 52.0627 41.9799 51.9325C41.6982 51.8 41.4745 51.6094 41.3088 51.3608C41.1431 51.1098 41.0602 50.8068 41.0602 50.4517C41.0602 50.1392 41.1217 49.8859 41.2449 49.6918C41.368 49.4953 41.5325 49.3414 41.7385 49.2301C41.9444 49.1188 42.1717 49.036 42.4203 48.9815C42.6712 48.9247 42.9234 48.8797 43.1767 48.8466C43.5081 48.804 43.7768 48.772 43.9828 48.7507C44.1911 48.727 44.3426 48.688 44.4373 48.6335C44.5344 48.5791 44.5829 48.4844 44.5829 48.3494V48.321C44.5829 47.9706 44.487 47.6984 44.2953 47.5043C44.1059 47.3101 43.8182 47.2131 43.4324 47.2131C43.0323 47.2131 42.7186 47.3007 42.4913 47.4759C42.264 47.651 42.1042 47.8381 42.0119 48.0369L41.2164 47.7528C41.3585 47.4214 41.5479 47.1634 41.7846 46.9787C42.0237 46.7917 42.2842 46.6615 42.5659 46.5881C42.85 46.5123 43.1293 46.4744 43.4039 46.4744C43.5791 46.4744 43.7804 46.4957 44.0076 46.5384C44.2373 46.5786 44.4586 46.6626 44.6717 46.7905C44.8871 46.9183 45.0659 47.1113 45.2079 47.3693C45.35 47.6274 45.421 47.973 45.421 48.4062V52H44.5829V51.2614H44.5403C44.4835 51.3797 44.3888 51.5064 44.2562 51.6413C44.1236 51.7763 43.9473 51.8911 43.7271 51.9858C43.5069 52.0805 43.2382 52.1278 42.921 52.1278ZM43.0488 51.375C43.3803 51.375 43.6596 51.3099 43.8869 51.1797C44.1165 51.0495 44.2894 50.8814 44.4054 50.6754C44.5237 50.4695 44.5829 50.2528 44.5829 50.0256V49.2585C44.5474 49.3011 44.4693 49.3402 44.3485 49.3757C44.2302 49.4089 44.0929 49.4384 43.9366 49.4645C43.7827 49.4882 43.6324 49.5095 43.4856 49.5284C43.3412 49.545 43.224 49.5592 43.1341 49.571C42.9163 49.5994 42.7127 49.6456 42.5233 49.7095C42.3362 49.7711 42.1847 49.8646 42.0687 49.9901C41.9551 50.1132 41.8983 50.2812 41.8983 50.4943C41.8983 50.7855 42.006 51.0057 42.2214 51.1548C42.4392 51.3016 42.715 51.375 43.0488 51.375ZM49.3228 46.5455V47.2557H46.4961V46.5455H49.3228ZM47.32 45.2386H48.158V50.4375C48.158 50.6742 48.1924 50.8518 48.261 50.9702C48.332 51.0862 48.422 51.1643 48.5309 51.2045C48.6422 51.2424 48.7594 51.2614 48.8825 51.2614C48.9748 51.2614 49.0505 51.2566 49.1097 51.2472C49.1689 51.2353 49.2163 51.2259 49.2518 51.2188L49.4222 51.9716C49.3654 51.9929 49.2861 52.0142 49.1843 52.0355C49.0825 52.0592 48.9535 52.071 48.7972 52.071C48.5605 52.071 48.3285 52.0201 48.1012 51.9183C47.8763 51.8165 47.6893 51.6615 47.5401 51.4531C47.3933 51.2448 47.32 50.982 47.32 50.6648V45.2386ZM51.5387 48.7188V52H50.7006V44.7273H51.5387V47.3977H51.6097C51.7376 47.116 51.9293 46.8923 52.185 46.7266C52.4431 46.5585 52.7863 46.4744 53.2148 46.4744C53.5865 46.4744 53.9121 46.549 54.1914 46.6982C54.4708 46.8449 54.6874 47.071 54.8413 47.3764C54.9975 47.6795 55.0756 48.0653 55.0756 48.5341V52H54.2376V48.5909C54.2376 48.1577 54.1251 47.8227 53.9002 47.5859C53.6777 47.3468 53.3687 47.2273 52.9734 47.2273C52.6987 47.2273 52.4525 47.2853 52.2347 47.4013C52.0193 47.5173 51.8488 47.6866 51.7234 47.9091C51.6003 48.1316 51.5387 48.4015 51.5387 48.7188ZM56.9533 54.0455C56.8113 54.0455 56.6846 54.0336 56.5733 54.0099C56.4621 53.9886 56.3851 53.9673 56.3425 53.946L56.5556 53.2074C56.7592 53.2595 56.9391 53.2784 57.0953 53.2642C57.2516 53.25 57.3901 53.1802 57.5108 53.0547C57.6339 52.9316 57.7464 52.7315 57.8482 52.4545L58.0044 52.0284L55.9874 46.5455H56.8965L58.4022 50.892H58.459L59.9647 46.5455H60.8738L58.5584 52.7955C58.4542 53.0772 58.3252 53.3104 58.1713 53.495C58.0175 53.6821 57.8387 53.8205 57.6351 53.9105C57.4339 54.0005 57.2066 54.0455 56.9533 54.0455Z" fill="white"/>
<defs>
<filter id="filter0_d_13_10" x="4" y="8" width="164" height="36" filterUnits="userSpaceOnUse" color-interpolation-filters="sRGB">
<feFlood flood-opacity="0" result="BackgroundImageFix"/>
<feColorMatrix in="SourceAlpha" type="matrix" values="0 0 0 0 0 0 0 0 0 0 0 0 0 0 0 0 0 0 127 0" result="hardAlpha"/>
<feOffset/>
<feGaussianBlur stdDeviation="5"/>
<feComposite in2="hardAlpha" operator="out"/>
<feColorMatrix type="matrix" values="0 0 0 0 0.494118 0 0 0 0 0.964706 0 0 0 0 0.941176 0 0 0 1 0"/>
<feBlend mode="normal" in2="BackgroundImageFix" result="effect1_dropShadow_13_10"/>
<feBlend mode="normal" in="SourceGraphic" in2="effect1_dropShadow_13_10" result="shape"/>
</filter>
<filter id="filter1_d_13_10" x="4" y="48" width="164" height="36" filterUnits="userSpaceOnUse" color-interpolation-filters="sRGB">
<feFlood flood-opacity="0" result="BackgroundImageFix"/>
<feColorMatrix in="SourceAlpha" type="matrix" values="0 0 0 0 0 0 0 0 0 0 0 0 0 0 0 0 0 0 127 0" result="hardAlpha"/>
<feOffset/>
<feGaussianBlur stdDeviation="5"/>
<feComposite in2="hardAlpha" operator="out"/>
<feColorMatrix type="matrix" values="0 0 0 0 0.494118 0 0 0 0 0.964706 0 0 0 0 0.941176 0 0 0 1 0"/>
<feBlend mode="normal" in2="BackgroundImageFix" result="effect1_dropShadow_13_10"/>
<feBlend mode="normal" in="SourceGraphic" in2="effect1_dropShadow_13_10" result="shape"/>
</filter>
<filter id="filter2_d_13_10" x="171" y="8" width="164" height="36" filterUnits="userSpaceOnUse" color-interpolation-filters="sRGB">
<feFlood flood-opacity="0" result="BackgroundImageFix"/>
<feColorMatrix in="SourceAlpha" type="matrix" values="0 0 0 0 0 0 0 0 0 0 0 0 0 0 0 0 0 0 127 0" result="hardAlpha"/>
<feOffset/>
<feGaussianBlur stdDeviation="5"/>
<feComposite in2="hardAlpha" operator="out"/>
<feColorMatrix type="matrix" values="0 0 0 0 0.494118 0 0 0 0 0.964706 0 0 0 0 0.941176 0 0 0 1 0"/>
<feBlend mode="normal" in2="BackgroundImageFix" result="effect1_dropShadow_13_10"/>
<feBlend mode="normal" in="SourceGraphic" in2="effect1_dropShadow_13_10" result="shape"/>
</filter>
<filter id="filter3_d_13_10" x="176.105" y="49.1055" width="164" height="36" filterUnits="userSpaceOnUse" color-interpolation-filters="sRGB">
<feFlood flood-opacity="0" result="BackgroundImageFix"/>
<feColorMatrix in="SourceAlpha" type="matrix" values="0 0 0 0 0 0 0 0 0 0 0 0 0 0 0 0 0 0 127 0" result="hardAlpha"/>
<feOffset/>
<feGaussianBlur stdDeviation="5"/>
<feComposite in2="hardAlpha" operator="out"/>
<feColorMatrix type="matrix" values="0 0 0 0 0.494118 0 0 0 0 0.964706 0 0 0 0 0.941176 0 0 0 1 0"/>
<feBlend mode="normal" in2="BackgroundImageFix" result="effect1_dropShadow_13_10"/>
<feBlend mode="normal" in="SourceGraphic" in2="effect1_dropShadow_13_10" result="shape"/>
</filter>
<linearGradient id="paint0_linear_13_10" x1="23.7412" y1="19.2632" x2="112.066" y2="89.0491" gradientUnits="userSpaceOnUse">
<stop offset="0.0695937" stop-color="#021D5A"/>
<stop offset="0.816425" stop-color="#4CA7E8"/>
</linearGradient>
<linearGradient id="paint1_linear_13_10" x1="23.7412" y1="59.2632" x2="112.066" y2="129.049" gradientUnits="userSpaceOnUse">
<stop offset="0.0695937" stop-color="#021D5A"/>
<stop offset="0.816425" stop-color="#4CA7E8"/>
</linearGradient>
<linearGradient id="paint2_linear_13_10" x1="27.3237" y1="20.3125" x2="97.4066" y2="22.5382" gradientUnits="userSpaceOnUse">
<stop stop-color="#021D5A"/>
<stop offset="0.626" stop-color="#4CA7E8"/>
</linearGradient>
<linearGradient id="paint3_linear_13_10" x1="25.8299" y1="60.3125" x2="87.432" y2="62.0317" gradientUnits="userSpaceOnUse">
<stop stop-color="#021D5A"/>
<stop offset="0.626" stop-color="#4CA7E8"/>
</linearGradient>
<linearGradient id="paint4_linear_13_10" x1="190.741" y1="19.2632" x2="279.066" y2="89.0491" gradientUnits="userSpaceOnUse">
<stop offset="0.0695937" stop-color="#021D5A"/>
<stop offset="0.816425" stop-color="#4CA7E8"/>
</linearGradient>
<linearGradient id="paint5_linear_13_10" x1="195.847" y1="60.3686" x2="284.171" y2="130.155" gradientUnits="userSpaceOnUse">
<stop offset="0.0695937" stop-color="#021D5A"/>
<stop offset="0.816425" stop-color="#4CA7E8"/>
</linearGradient>
<linearGradient id="paint6_linear_13_10" x1="199.429" y1="61.418" x2="269.512" y2="63.6437" gradientUnits="userSpaceOnUse">
<stop stop-color="#021D5A"/>
<stop offset="0.626" stop-color="#4CA7E8"/>
</linearGradient>
<linearGradient id="paint7_linear_13_10" x1="188.846" y1="20.3125" x2="227.809" y2="20.9999" gradientUnits="userSpaceOnUse">
<stop stop-color="#021D5A"/>
<stop offset="0.626" stop-color="#4CA7E8"/>
</linearGradient>
</defs>
</svg>
