<svg width="279" height="63" viewBox="0 0 279 63" fill="none" xmlns="http://www.w3.org/2000/svg">
<g filter="url(#filter0_i_3_2)">
<rect width="266.286" height="17.4043" rx="8.70215" transform="matrix(1 0 0 -1 12 46.4043)" fill="#292929"/>
</g>
<g filter="url(#filter1_f_3_2)">
<rect width="206.757" height="18.2596" rx="9.1298" transform="matrix(1 0 0 -1 12 47.2745)" fill="url(#paint0_linear_3_2)"/>
</g>
<g filter="url(#filter2_ii_3_2)">
<rect width="206.757" height="18.2596" rx="9.1298" transform="matrix(1 0 0 -1 12 47.2745)" fill="url(#paint1_linear_3_2)"/>
</g>
<path d="M20.663 56.1819V62.0001H19.9585V56.9205H19.9244L18.504 57.8637V57.1478L19.9585 56.1819H20.663ZM50.9963 62.0001V61.4887L52.9168 59.3864C53.1422 59.1402 53.3278 58.9262 53.4736 58.7444C53.6194 58.5607 53.7274 58.3883 53.7975 58.2273C53.8694 58.0645 53.9054 57.894 53.9054 57.716C53.9054 57.5114 53.8562 57.3343 53.7577 57.1847C53.6611 57.0351 53.5285 56.9196 53.36 56.8381C53.1914 56.7567 53.002 56.716 52.7918 56.716C52.5683 56.716 52.3732 56.7624 52.2066 56.8552C52.0418 56.9461 51.914 57.0739 51.823 57.2387C51.734 57.4035 51.6895 57.5967 51.6895 57.8182H51.0191C51.0191 57.4773 51.0977 57.1781 51.2549 56.9205C51.4121 56.6629 51.6261 56.4622 51.8969 56.3182C52.1696 56.1743 52.4755 56.1023 52.8145 56.1023C53.1554 56.1023 53.4575 56.1743 53.7208 56.3182C53.984 56.4622 54.1905 56.6563 54.3401 56.9006C54.4897 57.1449 54.5645 57.4167 54.5645 57.716C54.5645 57.93 54.5257 58.1393 54.448 58.3438C54.3723 58.5465 54.2397 58.7728 54.0503 59.0228C53.8628 59.2709 53.6024 59.5739 53.2691 59.9319L51.9623 61.3296V61.3751H54.6668V62.0001H50.9963ZM83.656 62.0796C83.281 62.0796 82.9467 62.0152 82.6532 61.8864C82.3615 61.7576 82.1295 61.5787 81.9571 61.3495C81.7867 61.1184 81.6939 60.8504 81.6787 60.5455H82.3946C82.4098 60.733 82.4742 60.8949 82.5878 61.0313C82.7015 61.1658 82.8501 61.2699 83.0338 61.3438C83.2176 61.4177 83.4212 61.4546 83.6446 61.4546C83.8946 61.4546 84.1162 61.411 84.3094 61.3239C84.5026 61.2368 84.6541 61.1156 84.764 60.9603C84.8738 60.805 84.9287 60.6251 84.9287 60.4205C84.9287 60.2065 84.8757 60.0181 84.7696 59.8552C84.6636 59.6904 84.5083 59.5616 84.3037 59.4688C84.0992 59.376 83.8492 59.3296 83.5537 59.3296H83.0878V58.7046H83.5537C83.7848 58.7046 83.9874 58.6629 84.1617 58.5796C84.3378 58.4963 84.4751 58.3788 84.5736 58.2273C84.674 58.0758 84.7242 57.8978 84.7242 57.6932C84.7242 57.4963 84.6806 57.3249 84.5935 57.179C84.5064 57.0332 84.3833 56.9196 84.2242 56.8381C84.067 56.7567 83.8814 56.716 83.6674 56.716C83.4666 56.716 83.2772 56.7529 83.0992 56.8268C82.923 56.8987 82.7791 57.0038 82.6674 57.1421C82.5556 57.2785 82.495 57.4432 82.4855 57.6364H81.8037C81.8151 57.3315 81.9069 57.0645 82.0793 56.8353C82.2516 56.6042 82.477 56.4243 82.7554 56.2955C83.0357 56.1667 83.3435 56.1023 83.6787 56.1023C84.0386 56.1023 84.3473 56.1753 84.6049 56.3211C84.8624 56.465 85.0604 56.6554 85.1986 56.8921C85.3369 57.1288 85.406 57.3845 85.406 57.6592C85.406 57.9868 85.3198 58.2662 85.1475 58.4972C84.977 58.7283 84.745 58.8883 84.4515 58.9773V59.0228C84.8189 59.0834 85.1058 59.2396 85.3123 59.4915C85.5187 59.7415 85.6219 60.0512 85.6219 60.4205C85.6219 60.7368 85.5357 61.0209 85.3634 61.2728C85.1929 61.5228 84.96 61.7198 84.6645 61.8637C84.3691 62.0076 84.0329 62.0796 83.656 62.0796ZM112.497 60.8069V60.2273L115.054 56.1819H115.475V57.0796H115.191L113.259 60.1364V60.1819H116.702V60.8069H112.497ZM115.236 62.0001V60.6307V60.3609V56.1819H115.907V62.0001H115.236ZM142.625 62.0796C142.292 62.0796 141.991 62.0133 141.724 61.8807C141.457 61.7482 141.243 61.5663 141.082 61.3353C140.921 61.1042 140.833 60.841 140.818 60.5455H141.5C141.526 60.8088 141.646 61.0266 141.858 61.1989C142.072 61.3694 142.327 61.4546 142.625 61.4546C142.863 61.4546 143.076 61.3987 143.261 61.287C143.449 61.1753 143.595 61.0218 143.702 60.8268C143.809 60.6298 143.863 60.4073 143.863 60.1592C143.863 59.9054 143.808 59.679 143.696 59.4802C143.586 59.2794 143.434 59.1213 143.241 59.0057C143.048 58.8902 142.827 58.8315 142.579 58.8296C142.401 58.8277 142.219 58.8552 142.031 58.912C141.844 58.9669 141.689 59.0379 141.568 59.1251L140.909 59.0455L141.261 56.1819H144.284V56.8069H141.852L141.648 58.5228H141.682C141.801 58.4281 141.951 58.3495 142.131 58.287C142.31 58.2245 142.498 58.1932 142.693 58.1932C143.049 58.1932 143.366 58.2785 143.645 58.4489C143.925 58.6175 144.145 58.8485 144.304 59.1421C144.465 59.4357 144.545 59.7709 144.545 60.1478C144.545 60.519 144.462 60.8504 144.295 61.1421C144.131 61.4319 143.903 61.661 143.613 61.8296C143.324 61.9963 142.994 62.0796 142.625 62.0796ZM170.646 62.0796C170.407 62.0758 170.168 62.0304 169.93 61.9432C169.691 61.8561 169.473 61.7093 169.276 61.5029C169.079 61.2946 168.921 61.0133 168.802 60.6592C168.683 60.3031 168.623 59.8561 168.623 59.3182C168.623 58.8031 168.671 58.3467 168.768 57.9489C168.864 57.5493 169.005 57.2131 169.188 56.9404C169.372 56.6658 169.594 56.4574 169.853 56.3154C170.114 56.1734 170.409 56.1023 170.737 56.1023C171.062 56.1023 171.352 56.1677 171.606 56.2984C171.862 56.4271 172.07 56.6071 172.231 56.8381C172.392 57.0692 172.496 57.3353 172.543 57.6364H171.85C171.786 57.3751 171.661 57.1582 171.475 56.9859C171.29 56.8135 171.043 56.7273 170.737 56.7273C170.286 56.7273 169.931 56.9234 169.671 57.3154C169.414 57.7074 169.284 58.2576 169.282 58.966H169.327C169.434 58.805 169.559 58.6677 169.705 58.554C169.853 58.4385 170.016 58.3495 170.194 58.287C170.372 58.2245 170.56 58.1932 170.759 58.1932C171.093 58.1932 171.398 58.2766 171.674 58.4432C171.951 58.608 172.172 58.8362 172.339 59.1279C172.506 59.4177 172.589 59.7501 172.589 60.1251C172.589 60.4849 172.508 60.8145 172.347 61.1137C172.186 61.411 171.96 61.6478 171.668 61.8239C171.379 61.9982 171.038 62.0834 170.646 62.0796ZM170.646 61.4546C170.884 61.4546 171.098 61.3949 171.288 61.2756C171.479 61.1563 171.63 60.9963 171.739 60.7955C171.851 60.5948 171.907 60.3713 171.907 60.1251C171.907 59.8845 171.853 59.6658 171.745 59.4688C171.639 59.2699 171.492 59.1118 171.305 58.9944C171.119 58.877 170.907 58.8182 170.668 58.8182C170.488 58.8182 170.321 58.8542 170.166 58.9262C170.01 58.9963 169.874 59.0929 169.756 59.216C169.641 59.3391 169.55 59.4802 169.484 59.6393C169.417 59.7965 169.384 59.9622 169.384 60.1364C169.384 60.3675 169.438 60.5834 169.546 60.7842C169.656 60.9849 169.806 61.1468 169.995 61.2699C170.186 61.3931 170.403 61.4546 170.646 61.4546ZM191.308 62.0001L193.91 56.8523V56.8069H190.91V56.1819H194.637V56.841L192.046 62.0001H191.308ZM220.6 62.0796C220.21 62.0796 219.865 62.0105 219.566 61.8722C219.269 61.7321 219.037 61.5398 218.87 61.2955C218.703 61.0493 218.621 60.769 218.623 60.4546C218.621 60.2084 218.669 59.9811 218.768 59.7728C218.866 59.5626 219.001 59.3874 219.171 59.2472C219.343 59.1052 219.536 59.0152 219.748 58.9773V58.9432C219.469 58.8713 219.248 58.715 219.083 58.4745C218.918 58.2321 218.837 57.9565 218.839 57.6478C218.837 57.3523 218.912 57.0881 219.063 56.8552C219.215 56.6222 219.423 56.4385 219.688 56.304C219.955 56.1696 220.259 56.1023 220.6 56.1023C220.937 56.1023 221.238 56.1696 221.503 56.304C221.769 56.4385 221.977 56.6222 222.128 56.8552C222.282 57.0881 222.359 57.3523 222.361 57.6478C222.359 57.9565 222.275 58.2321 222.108 58.4745C221.944 58.715 221.725 58.8713 221.452 58.9432V58.9773C221.662 59.0152 221.852 59.1052 222.02 59.2472C222.189 59.3874 222.323 59.5626 222.424 59.7728C222.524 59.9811 222.575 60.2084 222.577 60.4546C222.575 60.769 222.49 61.0493 222.322 61.2955C222.155 61.5398 221.923 61.7321 221.626 61.8722C221.33 62.0105 220.988 62.0796 220.6 62.0796ZM220.6 61.4546C220.863 61.4546 221.091 61.412 221.282 61.3268C221.473 61.2415 221.621 61.1213 221.725 60.966C221.829 60.8107 221.882 60.6288 221.884 60.4205C221.882 60.2008 221.825 60.0067 221.714 59.8381C221.602 59.6696 221.449 59.537 221.256 59.4404C221.065 59.3438 220.846 59.2955 220.6 59.2955C220.352 59.2955 220.13 59.3438 219.935 59.4404C219.742 59.537 219.59 59.6696 219.478 59.8381C219.368 60.0067 219.314 60.2008 219.316 60.4205C219.314 60.6288 219.364 60.8107 219.466 60.966C219.571 61.1213 219.719 61.2415 219.912 61.3268C220.106 61.412 220.335 61.4546 220.6 61.4546ZM220.6 58.6932C220.808 58.6932 220.993 58.6516 221.154 58.5682C221.317 58.4849 221.445 58.3684 221.537 58.2188C221.63 58.0692 221.678 57.894 221.68 57.6932C221.678 57.4963 221.631 57.3249 221.54 57.179C221.449 57.0313 221.323 56.9177 221.162 56.8381C221.001 56.7567 220.814 56.716 220.6 56.716C220.382 56.716 220.192 56.7567 220.029 56.8381C219.866 56.9177 219.74 57.0313 219.651 57.179C219.562 57.3249 219.519 57.4963 219.52 57.6932C219.519 57.894 219.563 58.0692 219.654 58.2188C219.747 58.3684 219.875 58.4849 220.037 58.5682C220.2 58.6516 220.388 58.6932 220.6 58.6932ZM245.748 56.1023C245.987 56.1042 246.226 56.1497 246.464 56.2387C246.703 56.3277 246.921 56.4754 247.118 56.6819C247.315 56.8864 247.473 57.1658 247.592 57.5199C247.711 57.8741 247.771 58.3182 247.771 58.8523C247.771 59.3694 247.722 59.8287 247.623 60.2302C247.527 60.6298 247.387 60.9669 247.203 61.2415C247.021 61.5162 246.799 61.7245 246.538 61.8665C246.279 62.0086 245.985 62.0796 245.657 62.0796C245.332 62.0796 245.041 62.0152 244.785 61.8864C244.531 61.7557 244.323 61.5749 244.16 61.3438C243.999 61.1109 243.896 60.841 243.851 60.5342H244.544C244.606 60.8012 244.73 61.0218 244.916 61.1961C245.103 61.3684 245.351 61.4546 245.657 61.4546C246.106 61.4546 246.46 61.2586 246.72 60.8665C246.981 60.4745 247.112 59.9205 247.112 59.2046H247.066C246.96 59.3637 246.834 59.501 246.689 59.6165C246.543 59.7321 246.381 59.8211 246.203 59.8836C246.025 59.9461 245.835 59.9773 245.635 59.9773C245.301 59.9773 244.995 59.8949 244.717 59.7302C244.441 59.5635 244.219 59.3353 244.052 59.0455C243.888 58.7538 243.805 58.4205 243.805 58.0455C243.805 57.6895 243.885 57.3637 244.044 57.0682C244.205 56.7709 244.43 56.5342 244.72 56.358C245.012 56.1819 245.354 56.0967 245.748 56.1023ZM245.748 56.7273C245.51 56.7273 245.295 56.787 245.103 56.9063C244.914 57.0237 244.763 57.1828 244.652 57.3836C244.542 57.5824 244.487 57.8031 244.487 58.0455C244.487 58.2879 244.54 58.5086 244.646 58.7074C244.754 58.9044 244.901 59.0616 245.086 59.179C245.274 59.2946 245.487 59.3523 245.726 59.3523C245.906 59.3523 246.073 59.3173 246.228 59.2472C246.384 59.1753 246.519 59.0777 246.635 58.9546C246.752 58.8296 246.844 58.6885 246.91 58.5313C246.977 58.3722 247.01 58.2065 247.01 58.0342C247.01 57.8069 246.955 57.5938 246.845 57.3949C246.737 57.1961 246.587 57.0351 246.396 56.912C246.207 56.7889 245.991 56.7273 245.748 56.7273ZM268.354 56.1819V62.0001H267.649V56.9205H267.615L266.195 57.8637V57.1478L267.649 56.1819H268.354ZM272.485 62.0796C272.057 62.0796 271.692 61.9631 271.391 61.7302C271.09 61.4953 270.86 61.1554 270.701 60.7103C270.542 60.2633 270.462 59.7235 270.462 59.091C270.462 58.4622 270.542 57.9253 270.701 57.4802C270.862 57.0332 271.093 56.6923 271.394 56.4574C271.697 56.2207 272.06 56.1023 272.485 56.1023C272.909 56.1023 273.272 56.2207 273.573 56.4574C273.876 56.6923 274.107 57.0332 274.266 57.4802C274.427 57.9253 274.507 58.4622 274.507 59.091C274.507 59.7235 274.428 60.2633 274.269 60.7103C274.11 61.1554 273.88 61.4953 273.578 61.7302C273.277 61.9631 272.913 62.0796 272.485 62.0796ZM272.485 61.4546C272.909 61.4546 273.238 61.2501 273.473 60.841C273.708 60.4319 273.826 59.8485 273.826 59.091C273.826 58.5872 273.772 58.1582 273.664 57.804C273.558 57.4499 273.404 57.18 273.203 56.9944C273.005 56.8088 272.765 56.716 272.485 56.716C272.064 56.716 271.736 56.9234 271.499 57.3381C271.262 57.751 271.144 58.3353 271.144 59.091C271.144 59.5948 271.197 60.0228 271.303 60.3751C271.409 60.7273 271.561 60.9953 271.76 61.179C271.961 61.3628 272.202 61.4546 272.485 61.4546Z" fill="white"/>
<g filter="url(#filter3_d_3_2)">
<rect x="205" y="2" width="33" height="40" rx="4" fill="#65C6C5"/>
<path d="M221.315 27.1392C220.633 27.1392 220.029 27.0182 219.506 26.7763C218.985 26.531 218.579 26.1946 218.288 25.767C217.996 25.3362 217.852 24.8456 217.855 24.2955C217.852 23.8646 217.936 23.4669 218.109 23.1023C218.281 22.7344 218.516 22.4278 218.815 22.1825C219.116 21.9339 219.453 21.7765 219.824 21.7102V21.6506C219.337 21.5246 218.949 21.2512 218.661 20.8303C218.372 20.406 218.23 19.9238 218.233 19.3835C218.23 18.8665 218.361 18.4041 218.626 17.9964C218.891 17.5888 219.255 17.2673 219.719 17.032C220.187 16.7966 220.719 16.679 221.315 16.679C221.905 16.679 222.432 16.7966 222.896 17.032C223.36 17.2673 223.725 17.5888 223.99 17.9964C224.259 18.4041 224.394 18.8665 224.398 19.3835C224.394 19.9238 224.247 20.406 223.955 20.8303C223.667 21.2512 223.284 21.5246 222.807 21.6506V21.7102C223.175 21.7765 223.506 21.9339 223.801 22.1825C224.096 22.4278 224.331 22.7344 224.507 23.1023C224.683 23.4669 224.772 23.8646 224.776 24.2955C224.772 24.8456 224.623 25.3362 224.328 25.767C224.036 26.1946 223.63 26.531 223.11 26.7763C222.593 27.0182 221.995 27.1392 221.315 27.1392ZM221.315 26.0455C221.776 26.0455 222.174 25.9709 222.509 25.8217C222.843 25.6726 223.102 25.4621 223.284 25.1903C223.466 24.9186 223.559 24.6004 223.562 24.2358C223.559 23.8513 223.46 23.5116 223.264 23.2166C223.069 22.9216 222.802 22.6896 222.464 22.5206C222.129 22.3516 221.746 22.267 221.315 22.267C220.881 22.267 220.493 22.3516 220.152 22.5206C219.814 22.6896 219.547 22.9216 219.352 23.2166C219.159 23.5116 219.065 23.8513 219.068 24.2358C219.065 24.6004 219.153 24.9186 219.332 25.1903C219.514 25.4621 219.774 25.6726 220.112 25.8217C220.45 25.9709 220.851 26.0455 221.315 26.0455ZM221.315 21.2131C221.68 21.2131 222.003 21.1402 222.285 20.9943C222.57 20.8485 222.794 20.6446 222.956 20.3828C223.118 20.121 223.201 19.8144 223.205 19.4631C223.201 19.1184 223.12 18.8184 222.961 18.5632C222.802 18.3047 222.581 18.1058 222.3 17.9666C222.018 17.8241 221.69 17.7528 221.315 17.7528C220.934 17.7528 220.601 17.8241 220.316 17.9666C220.031 18.1058 219.811 18.3047 219.655 18.5632C219.499 18.8184 219.423 19.1184 219.426 19.4631C219.423 19.8144 219.501 20.121 219.66 20.3828C219.822 20.6446 220.046 20.8485 220.331 20.9943C220.616 21.1402 220.944 21.2131 221.315 21.2131Z" fill="white"/>
<path d="M220.124 51.1261L209.003 40L234.914 40.0063L223.788 51.127C222.776 52.1386 221.135 52.1382 220.124 51.1261Z" fill="#65C6C5"/>
</g>
<defs>
<filter id="filter0_i_3_2" x="12" y="29" width="266.286" height="20.4043" filterUnits="userSpaceOnUse" color-interpolation-filters="sRGB">
<feFlood flood-opacity="0" result="BackgroundImageFix"/>
<feBlend mode="normal" in="SourceGraphic" in2="BackgroundImageFix" result="shape"/>
<feColorMatrix in="SourceAlpha" type="matrix" values="0 0 0 0 0 0 0 0 0 0 0 0 0 0 0 0 0 0 127 0" result="hardAlpha"/>
<feOffset dy="3"/>
<feGaussianBlur stdDeviation="1.5"/>
<feComposite in2="hardAlpha" operator="arithmetic" k2="-1" k3="1"/>
<feColorMatrix type="matrix" values="0 0 0 0 0 0 0 0 0 0 0 0 0 0 0 0 0 0 0.25 0"/>
<feBlend mode="normal" in2="shape" result="effect1_innerShadow_3_2"/>
</filter>
<filter id="filter1_f_3_2" x="0" y="17.0149" width="230.757" height="42.2596" filterUnits="userSpaceOnUse" color-interpolation-filters="sRGB">
<feFlood flood-opacity="0" result="BackgroundImageFix"/>
<feBlend mode="normal" in="SourceGraphic" in2="BackgroundImageFix" result="shape"/>
<feGaussianBlur stdDeviation="6" result="effect1_foregroundBlur_3_2"/>
</filter>
<filter id="filter2_ii_3_2" x="12" y="27.0149" width="206.757" height="23.2596" filterUnits="userSpaceOnUse" color-interpolation-filters="sRGB">
<feFlood flood-opacity="0" result="BackgroundImageFix"/>
<feBlend mode="normal" in="SourceGraphic" in2="BackgroundImageFix" result="shape"/>
<feColorMatrix in="SourceAlpha" type="matrix" values="0 0 0 0 0 0 0 0 0 0 0 0 0 0 0 0 0 0 127 0" result="hardAlpha"/>
<feOffset dy="3"/>
<feGaussianBlur stdDeviation="2"/>
<feComposite in2="hardAlpha" operator="arithmetic" k2="-1" k3="1"/>
<feColorMatrix type="matrix" values="0 0 0 0 1 0 0 0 0 1 0 0 0 0 1 0 0 0 0.5 0"/>
<feBlend mode="normal" in2="shape" result="effect1_innerShadow_3_2"/>
<feColorMatrix in="SourceAlpha" type="matrix" values="0 0 0 0 0 0 0 0 0 0 0 0 0 0 0 0 0 0 127 0" result="hardAlpha"/>
<feOffset dy="-2"/>
<feGaussianBlur stdDeviation="2"/>
<feComposite in2="hardAlpha" operator="arithmetic" k2="-1" k3="1"/>
<feColorMatrix type="matrix" values="0 0 0 0 0 0 0 0 0 0 0 0 0 0 0 0 0 0 0.25 0"/>
<feBlend mode="normal" in2="effect1_innerShadow_3_2" result="effect2_innerShadow_3_2"/>
</filter>
<filter id="filter3_d_3_2" x="198.887" y="0.88666" width="45.2267" height="62.1121" filterUnits="userSpaceOnUse" color-interpolation-filters="sRGB">
<feFlood flood-opacity="0" result="BackgroundImageFix"/>
<feColorMatrix in="SourceAlpha" type="matrix" values="0 0 0 0 0 0 0 0 0 0 0 0 0 0 0 0 0 0 127 0" result="hardAlpha"/>
<feMorphology radius="3.88666" operator="erode" in="SourceAlpha" result="effect1_dropShadow_3_2"/>
<feOffset dy="5"/>
<feGaussianBlur stdDeviation="5"/>
<feColorMatrix type="matrix" values="0 0 0 0 0 0 0 0 0 0 0 0 0 0 0 0 0 0 0.25 0"/>
<feBlend mode="normal" in2="BackgroundImageFix" result="effect1_dropShadow_3_2"/>
<feBlend mode="normal" in="SourceGraphic" in2="effect1_dropShadow_3_2" result="shape"/>
</filter>
<linearGradient id="paint0_linear_3_2" x1="3.83977" y1="9.12977" x2="208.824" y2="9.12976" gradientUnits="userSpaceOnUse">
<stop stop-color="#021D5A"/>
<stop offset="1" stop-color="#7EF6F0"/>
</linearGradient>
<linearGradient id="paint1_linear_3_2" x1="3.83977" y1="9.12977" x2="208.824" y2="9.12976" gradientUnits="userSpaceOnUse">
<stop stop-color="#021D5A"/>
<stop offset="0.546" stop-color="#7EF6F0"/>
<stop offset="1" stop-color="#CCFFFC"/>
</linearGradient>
</defs>
</svg>
