<svg width="68" height="36" viewBox="0 0 68 36" fill="none" xmlns="http://www.w3.org/2000/svg">
<rect width="68" height="36" rx="17" fill="#65C6C5"/>
<path d="M20.1192 20.5527C20.1192 20.2793 20.0736 20.0355 19.9825 19.8213C19.8913 19.6071 19.7409 19.4157 19.5313 19.2471C19.3262 19.0739 19.0482 18.9144 18.6973 18.7686C18.3509 18.6182 17.918 18.4701 17.3985 18.3242C16.9017 18.1829 16.4528 18.028 16.0518 17.8594C15.6508 17.6908 15.3067 17.4971 15.0196 17.2783C14.737 17.0596 14.5205 16.8044 14.3702 16.5127C14.2198 16.2165 14.1446 15.8724 14.1446 15.4805C14.1446 15.0977 14.2266 14.749 14.3907 14.4346C14.5547 14.1201 14.7849 13.849 15.0811 13.6211C15.3819 13.3932 15.7351 13.2178 16.1407 13.0947C16.5508 12.9717 16.9997 12.9102 17.4873 12.9102C18.1846 12.9102 18.7862 13.0423 19.292 13.3066C19.8024 13.571 20.1967 13.9287 20.4746 14.3799C20.7572 14.8265 20.8985 15.3278 20.8985 15.8838H20.0577C20.0577 15.4508 19.9551 15.0658 19.75 14.7285C19.5495 14.3867 19.2579 14.1201 18.875 13.9287C18.4968 13.7327 18.0342 13.6348 17.4873 13.6348C16.9405 13.6348 16.4802 13.7191 16.1065 13.8877C15.7373 14.0518 15.4571 14.2728 15.2657 14.5508C15.0788 14.8242 14.9854 15.1296 14.9854 15.4668C14.9854 15.7038 15.031 15.9225 15.1221 16.123C15.2133 16.319 15.3614 16.5036 15.5664 16.6768C15.7761 16.8454 16.0518 17.0049 16.3936 17.1553C16.7354 17.3011 17.1569 17.4401 17.6582 17.5723C18.1869 17.7181 18.6563 17.8799 19.0664 18.0576C19.4766 18.2354 19.823 18.4404 20.1055 18.6729C20.3881 18.9007 20.6023 19.1673 20.7481 19.4727C20.8939 19.778 20.9668 20.1335 20.9668 20.5391C20.9668 20.9447 20.8802 21.3092 20.7071 21.6328C20.5384 21.9518 20.2992 22.223 19.9893 22.4463C19.684 22.6696 19.3217 22.8405 18.9024 22.959C18.4877 23.0775 18.0342 23.1367 17.542 23.1367C17.1 23.1367 16.6602 23.0798 16.2227 22.9658C15.7852 22.8519 15.3842 22.6764 15.0196 22.4395C14.6595 22.1979 14.3702 21.888 14.1514 21.5098C13.9372 21.1315 13.8301 20.6803 13.8301 20.1562H14.6641C14.6641 20.5755 14.7484 20.9287 14.917 21.2158C15.0857 21.5029 15.309 21.7354 15.587 21.9131C15.8695 22.0908 16.1794 22.2207 16.5166 22.3027C16.8584 22.3802 17.2002 22.4189 17.542 22.4189C18.0661 22.4189 18.5196 22.3415 18.9024 22.1865C19.2898 22.0316 19.5883 21.8151 19.7979 21.5371C20.0121 21.2546 20.1192 20.9264 20.1192 20.5527ZM21.8226 19.418V19.1924C21.8226 18.6546 21.9001 18.1579 22.055 17.7021C22.21 17.2464 22.431 16.8522 22.7181 16.5195C23.0098 16.1868 23.3584 15.9294 23.764 15.7471C24.1696 15.5602 24.6208 15.4668 25.1175 15.4668C25.6188 15.4668 26.0723 15.5602 26.4779 15.7471C26.8835 15.9294 27.2321 16.1868 27.5238 16.5195C27.8155 16.8522 28.0388 17.2464 28.1937 17.7021C28.3487 18.1579 28.4261 18.6546 28.4261 19.1924V19.418C28.4261 19.9557 28.3487 20.4525 28.1937 20.9082C28.0388 21.3594 27.8155 21.7513 27.5238 22.084C27.2367 22.4167 26.8903 22.6764 26.4847 22.8633C26.0791 23.0456 25.628 23.1367 25.1312 23.1367C24.6299 23.1367 24.1765 23.0456 23.7709 22.8633C23.3653 22.6764 23.0166 22.4167 22.725 22.084C22.4333 21.7513 22.21 21.3594 22.055 20.9082C21.9001 20.4525 21.8226 19.9557 21.8226 19.418ZM22.6361 19.1924V19.418C22.6361 19.8236 22.6908 20.2087 22.8002 20.5732C22.9095 20.9333 23.069 21.2546 23.2787 21.5371C23.4883 21.8151 23.7481 22.0339 24.058 22.1934C24.3679 22.3529 24.7256 22.4326 25.1312 22.4326C25.5323 22.4326 25.8854 22.3529 26.1908 22.1934C26.5007 22.0339 26.7604 21.8151 26.9701 21.5371C27.1797 21.2546 27.3369 20.9333 27.4418 20.5732C27.5511 20.2087 27.6058 19.8236 27.6058 19.418V19.1924C27.6058 18.7913 27.5511 18.4108 27.4418 18.0508C27.3369 17.6908 27.1774 17.3695 26.9632 17.0869C26.7536 16.8044 26.4938 16.5811 26.1839 16.417C25.874 16.2529 25.5186 16.1709 25.1175 16.1709C24.7165 16.1709 24.361 16.2529 24.0511 16.417C23.7458 16.5811 23.486 16.8044 23.2718 17.0869C23.0622 17.3695 22.9027 17.6908 22.7933 18.0508C22.6885 18.4108 22.6361 18.7913 22.6361 19.1924ZM30.6149 16.8271V23H29.8014V15.6035H30.5944L30.6149 16.8271ZM33.2331 15.5488L33.2126 16.3008C33.1214 16.2871 33.0326 16.2757 32.946 16.2666C32.8594 16.2575 32.766 16.2529 32.6657 16.2529C32.3102 16.2529 31.9981 16.319 31.7292 16.4512C31.4649 16.5788 31.2415 16.7588 31.0593 16.9912C30.877 17.2191 30.738 17.488 30.6423 17.7979C30.5466 18.1032 30.4919 18.4313 30.4782 18.7822L30.1774 18.8984C30.1774 18.4154 30.2276 17.9665 30.3278 17.5518C30.4281 17.137 30.5807 16.7747 30.7858 16.4648C30.9955 16.1504 31.2575 15.9066 31.572 15.7334C31.891 15.5557 32.2647 15.4668 32.693 15.4668C32.7979 15.4668 32.9004 15.4759 33.0007 15.4941C33.1055 15.5078 33.183 15.526 33.2331 15.5488ZM37.3359 15.6035V16.2734H33.6309V15.6035H37.3359ZM34.9912 13.7031H35.8047V21.2021C35.8047 21.5439 35.8503 21.8014 35.9414 21.9746C36.0326 22.1478 36.151 22.264 36.2969 22.3232C36.4427 22.3825 36.5999 22.4121 36.7686 22.4121C36.8916 22.4121 37.0101 22.4053 37.124 22.3916C37.238 22.3734 37.3405 22.3551 37.4316 22.3369L37.4658 23.0273C37.3656 23.0592 37.2357 23.0843 37.0762 23.1025C36.9167 23.1253 36.7572 23.1367 36.5977 23.1367C36.2832 23.1367 36.0052 23.0798 35.7637 22.9658C35.5221 22.8473 35.333 22.6468 35.1963 22.3643C35.0596 22.0771 34.9912 21.6875 34.9912 21.1953V13.7031ZM41.8161 12.5H42.6364V21.5645L42.5817 23H41.8161V12.5ZM47.7838 19.2334V19.377C47.7838 19.9284 47.72 20.4342 47.5924 20.8945C47.4648 21.3548 47.2802 21.7536 47.0387 22.0908C46.7972 22.4235 46.5009 22.681 46.15 22.8633C45.8037 23.0456 45.4049 23.1367 44.9537 23.1367C44.5117 23.1367 44.1198 23.0684 43.778 22.9316C43.4362 22.7904 43.1445 22.5921 42.903 22.3369C42.6614 22.0771 42.4677 21.7741 42.3219 21.4277C42.1761 21.0768 42.0735 20.6917 42.0143 20.2725V18.4473C42.0827 18.0007 42.192 17.5951 42.3424 17.2305C42.4928 16.8659 42.6865 16.5514 42.9235 16.2871C43.165 16.0228 43.4521 15.82 43.7848 15.6787C44.122 15.5374 44.5071 15.4668 44.9401 15.4668C45.3912 15.4668 45.7923 15.5557 46.1432 15.7334C46.4987 15.9066 46.7972 16.1595 47.0387 16.4922C47.2802 16.8203 47.4648 17.2168 47.5924 17.6816C47.72 18.1419 47.7838 18.6592 47.7838 19.2334ZM46.9567 19.377V19.2334C46.9567 18.8005 46.9157 18.3994 46.8336 18.0303C46.7516 17.6611 46.6217 17.3398 46.444 17.0664C46.2708 16.7884 46.0475 16.5719 45.7741 16.417C45.5006 16.262 45.1725 16.1846 44.7897 16.1846C44.3978 16.1846 44.0628 16.2507 43.7848 16.3828C43.5114 16.5104 43.2835 16.6813 43.1012 16.8955C42.9235 17.1051 42.7822 17.3353 42.6774 17.5859C42.5726 17.8366 42.4951 18.0827 42.445 18.3242V20.4502C42.5224 20.792 42.6569 21.1133 42.8483 21.4141C43.0397 21.7148 43.2972 21.9587 43.6207 22.1455C43.9443 22.3278 44.3385 22.4189 44.8034 22.4189C45.1771 22.4189 45.4983 22.3415 45.7672 22.1865C46.0407 22.0316 46.264 21.8174 46.4371 21.5439C46.6149 21.2705 46.7448 20.9492 46.8268 20.5801C46.9134 20.2109 46.9567 19.8099 46.9567 19.377ZM51.3877 22.2617L53.6914 15.6035H54.5732L51.4423 24.1895C51.3785 24.3581 51.2965 24.5449 51.1963 24.75C51.1005 24.9551 50.9729 25.151 50.8134 25.3379C50.6585 25.5293 50.4625 25.6842 50.2255 25.8027C49.9931 25.9258 49.7083 25.9873 49.3711 25.9873C49.2845 25.9873 49.1728 25.9759 49.0361 25.9531C48.9039 25.9349 48.8082 25.9167 48.749 25.8984L48.7421 25.208C48.7923 25.2217 48.8652 25.2331 48.9609 25.2422C49.0566 25.2513 49.1227 25.2559 49.1591 25.2559C49.4554 25.2559 49.7037 25.2057 49.9043 25.1055C50.1093 25.0052 50.2802 24.8548 50.417 24.6543C50.5537 24.4583 50.6744 24.2122 50.7793 23.916L51.3877 22.2617ZM49.2343 15.6035L51.5927 21.9541L51.8115 22.8086L51.2168 23.1436L48.3457 15.6035H49.2343Z" fill="white"/>
</svg>
