<svg width="307" height="102" viewBox="0 0 307 102" fill="none" xmlns="http://www.w3.org/2000/svg">
<g filter="url(#filter0_d_3_7)">
<rect x="4" y="4" width="299" height="94" rx="17" fill="#01071B"/>
<rect x="4.5" y="4.5" width="298" height="93" rx="16.5" stroke="#33A8A2"/>
</g>
<path d="M61.0386 50.5455C60.996 50.1856 60.8232 49.9062 60.5202 49.7074C60.2171 49.5085 59.8454 49.4091 59.4051 49.4091C59.0831 49.4091 58.8014 49.4612 58.5599 49.5653C58.3208 49.6695 58.1338 49.8127 57.9988 49.995C57.8663 50.1773 57.8 50.3845 57.8 50.6165C57.8 50.8106 57.8461 50.9775 57.9385 51.1172C58.0332 51.2545 58.1539 51.3693 58.3007 51.4616C58.4475 51.5516 58.6014 51.6262 58.7623 51.6854C58.9233 51.7422 59.0713 51.7884 59.2062 51.8239L59.9449 52.0227C60.1343 52.0724 60.345 52.1411 60.577 52.2287C60.8113 52.3163 61.0351 52.4358 61.2481 52.5874C61.4636 52.7365 61.6411 52.9283 61.7808 53.1626C61.9205 53.397 61.9903 53.6847 61.9903 54.0256C61.9903 54.4186 61.8873 54.7737 61.6814 55.0909C61.4778 55.4081 61.1795 55.6603 60.7865 55.8473C60.3959 56.0343 59.9212 56.1278 59.3625 56.1278C58.8416 56.1278 58.3907 56.0438 58.0095 55.8757C57.6307 55.7076 57.3324 55.4732 57.1146 55.1726C56.8992 54.8719 56.7773 54.5227 56.7488 54.125H57.6579C57.6816 54.3996 57.7739 54.6269 57.9349 54.8068C58.0983 54.9844 58.3042 55.117 58.5528 55.2045C58.8038 55.2898 59.0737 55.3324 59.3625 55.3324C59.6987 55.3324 60.0005 55.2779 60.268 55.169C60.5355 55.0578 60.7474 54.9039 60.9037 54.7074C61.0599 54.5085 61.1381 54.2765 61.1381 54.0114C61.1381 53.7699 61.0706 53.5734 60.9356 53.4219C60.8007 53.2704 60.6231 53.1473 60.403 53.0526C60.1828 52.9579 59.9449 52.875 59.6892 52.804L58.7943 52.5483C58.2261 52.3849 57.7763 52.1518 57.4449 51.8487C57.1134 51.5457 56.9477 51.1491 56.9477 50.6591C56.9477 50.2519 57.0578 49.8968 57.278 49.5938C57.5005 49.2884 57.7988 49.0516 58.1729 48.8835C58.5493 48.7131 58.9695 48.6278 59.4335 48.6278C59.9023 48.6278 60.3189 48.7119 60.6835 48.88C61.0481 49.0457 61.3369 49.273 61.55 49.5618C61.7654 49.8506 61.8791 50.1785 61.8909 50.5455H61.0386ZM66.7622 53.7699V50.5455H67.6002V56H66.7622V55.0767H66.7053C66.5775 55.3537 66.3786 55.5893 66.1088 55.7834C65.8389 55.9751 65.498 56.071 65.086 56.071C64.7451 56.071 64.4421 55.9964 64.1769 55.8473C63.9118 55.6958 63.7035 55.4685 63.5519 55.1655C63.4004 54.8601 63.3247 54.4754 63.3247 54.0114V50.5455H64.1627V53.9545C64.1627 54.3523 64.274 54.6695 64.4965 54.9062C64.7214 55.143 65.0079 55.2614 65.3559 55.2614C65.5642 55.2614 65.7761 55.2081 65.9916 55.1016C66.2094 54.995 66.3917 54.8317 66.5384 54.6115C66.6876 54.3913 66.7622 54.1108 66.7622 53.7699ZM69.1352 56V50.5455H69.9449V51.3977H70.0159C70.1295 51.1065 70.313 50.8804 70.5663 50.7195C70.8196 50.5561 71.1238 50.4744 71.479 50.4744C71.8388 50.4744 72.1383 50.5561 72.3774 50.7195C72.6189 50.8804 72.8071 51.1065 72.942 51.3977H72.9988C73.1385 51.116 73.348 50.8923 73.6274 50.7266C73.9068 50.5585 74.2417 50.4744 74.6324 50.4744C75.1201 50.4744 75.519 50.6271 75.8291 50.9325C76.1392 51.2356 76.2943 51.7079 76.2943 52.3494V56H75.4562V52.3494C75.4562 51.947 75.3461 51.6593 75.126 51.4865C74.9058 51.3137 74.6466 51.2273 74.3483 51.2273C73.9648 51.2273 73.6676 51.3433 73.4569 51.5753C73.2462 51.8049 73.1409 52.0961 73.1409 52.4489V56H72.2886V52.2642C72.2886 51.9541 72.188 51.7043 71.9868 51.5149C71.7855 51.3232 71.5263 51.2273 71.2091 51.2273C70.9913 51.2273 70.7877 51.2853 70.5983 51.4013C70.4113 51.5173 70.2597 51.6783 70.1437 51.8842C70.0301 52.0878 69.9733 52.3234 69.9733 52.5909V56H69.1352ZM77.8266 56V50.5455H78.6363V51.3977H78.7073C78.8209 51.1065 79.0044 50.8804 79.2577 50.7195C79.511 50.5561 79.8153 50.4744 80.1704 50.4744C80.5302 50.4744 80.8297 50.5561 81.0688 50.7195C81.3103 50.8804 81.4985 51.1065 81.6334 51.3977H81.6903C81.8299 51.116 82.0394 50.8923 82.3188 50.7266C82.5982 50.5585 82.9332 50.4744 83.3238 50.4744C83.8115 50.4744 84.2104 50.6271 84.5205 50.9325C84.8306 51.2356 84.9857 51.7079 84.9857 52.3494V56H84.1476V52.3494C84.1476 51.947 84.0376 51.6593 83.8174 51.4865C83.5972 51.3137 83.338 51.2273 83.0397 51.2273C82.6562 51.2273 82.359 51.3433 82.1483 51.5753C81.9376 51.8049 81.8323 52.0961 81.8323 52.4489V56H80.98V52.2642C80.98 51.9541 80.8794 51.7043 80.6782 51.5149C80.4769 51.3232 80.2177 51.2273 79.9005 51.2273C79.6827 51.2273 79.4791 51.2853 79.2897 51.4013C79.1027 51.5173 78.9511 51.6783 78.8351 51.8842C78.7215 52.0878 78.6647 52.3234 78.6647 52.5909V56H77.8266ZM88.1231 56.1278C87.7775 56.1278 87.4638 56.0627 87.1821 55.9325C86.9004 55.8 86.6766 55.6094 86.5109 55.3608C86.3452 55.1098 86.2623 54.8068 86.2623 54.4517C86.2623 54.1392 86.3239 53.8859 86.447 53.6918C86.5701 53.4953 86.7346 53.3414 86.9406 53.2301C87.1466 53.1188 87.3738 53.036 87.6224 52.9815C87.8734 52.9247 88.1255 52.8797 88.3788 52.8466C88.7103 52.804 88.979 52.772 89.1849 52.7507C89.3933 52.727 89.5448 52.688 89.6395 52.6335C89.7365 52.5791 89.7851 52.4844 89.7851 52.3494V52.321C89.7851 51.9706 89.6892 51.6984 89.4974 51.5043C89.308 51.3101 89.0204 51.2131 88.6345 51.2131C88.2344 51.2131 87.9207 51.3007 87.6934 51.4759C87.4662 51.651 87.3064 51.8381 87.214 52.0369L86.4186 51.7528C86.5606 51.4214 86.75 51.1634 86.9868 50.9787C87.2259 50.7917 87.4863 50.6615 87.768 50.5881C88.0521 50.5123 88.3315 50.4744 88.6061 50.4744C88.7813 50.4744 88.9825 50.4957 89.2098 50.5384C89.4394 50.5786 89.6608 50.6626 89.8738 50.7905C90.0893 50.9183 90.268 51.1113 90.4101 51.3693C90.5521 51.6274 90.6231 51.973 90.6231 52.4062V56H89.7851V55.2614H89.7425C89.6856 55.3797 89.5909 55.5064 89.4584 55.6413C89.3258 55.7763 89.1494 55.8911 88.9292 55.9858C88.7091 56.0805 88.4404 56.1278 88.1231 56.1278ZM88.251 55.375C88.5824 55.375 88.8618 55.3099 89.089 55.1797C89.3187 55.0495 89.4915 54.8814 89.6075 54.6754C89.7259 54.4695 89.7851 54.2528 89.7851 54.0256V53.2585C89.7496 53.3011 89.6714 53.3402 89.5507 53.3757C89.4323 53.4089 89.295 53.4384 89.1388 53.4645C88.9849 53.4882 88.8345 53.5095 88.6878 53.5284C88.5434 53.545 88.4262 53.5592 88.3362 53.571C88.1184 53.5994 87.9148 53.6456 87.7254 53.7095C87.5384 53.7711 87.3869 53.8646 87.2709 53.9901C87.1572 54.1132 87.1004 54.2812 87.1004 54.4943C87.1004 54.7855 87.2081 55.0057 87.4236 55.1548C87.6414 55.3016 87.9172 55.375 88.251 55.375ZM92.1528 56V50.5455H92.9624V51.3693H93.0193C93.1187 51.0994 93.2986 50.8804 93.559 50.7124C93.8195 50.5443 94.113 50.4602 94.4397 50.4602C94.5013 50.4602 94.5782 50.4614 94.6705 50.4638C94.7629 50.4661 94.8327 50.4697 94.8801 50.4744V51.3267C94.8517 51.3196 94.7865 51.3089 94.6847 51.2947C94.5853 51.2782 94.48 51.2699 94.3687 51.2699C94.1035 51.2699 93.8668 51.3255 93.6585 51.4368C93.4525 51.5457 93.2892 51.6972 93.1684 51.8913C93.05 52.0831 92.9909 52.3021 92.9909 52.5483V56H92.1528ZM96.5793 58.0455C96.4372 58.0455 96.3106 58.0336 96.1993 58.0099C96.088 57.9886 96.0111 57.9673 95.9685 57.946L96.1816 57.2074C96.3852 57.2595 96.5651 57.2784 96.7213 57.2642C96.8776 57.25 97.0161 57.1802 97.1368 57.0547C97.2599 56.9316 97.3724 56.7315 97.4742 56.4545L97.6304 56.0284L95.6134 50.5455H96.5225L98.0281 54.892H98.085L99.5906 50.5455H100.5L98.1844 56.7955C98.0802 57.0772 97.9512 57.3104 97.7973 57.495C97.6434 57.6821 97.4647 57.8205 97.2611 57.9105C97.0599 58.0005 96.8326 58.0455 96.5793 58.0455ZM104.418 58.0455V50.5455H105.228V51.4119H105.328C105.389 51.3172 105.474 51.1965 105.583 51.0497C105.694 50.9006 105.853 50.768 106.059 50.652C106.267 50.5336 106.549 50.4744 106.904 50.4744C107.363 50.4744 107.768 50.5893 108.119 50.8189C108.469 51.0485 108.743 51.3741 108.939 51.7955C109.136 52.2169 109.234 52.714 109.234 53.2869C109.234 53.8646 109.136 54.3653 108.939 54.7891C108.743 55.2105 108.47 55.5372 108.122 55.7692C107.774 55.9988 107.373 56.1136 106.918 56.1136C106.568 56.1136 106.287 56.0556 106.077 55.9396C105.866 55.8213 105.704 55.6875 105.59 55.5384C105.477 55.3868 105.389 55.2614 105.328 55.1619H105.256V58.0455H104.418ZM105.242 53.2727C105.242 53.6847 105.303 54.0481 105.423 54.3629C105.544 54.6754 105.72 54.9205 105.953 55.098C106.185 55.2732 106.469 55.3608 106.805 55.3608C107.155 55.3608 107.448 55.2685 107.682 55.0838C107.919 54.8968 108.096 54.6458 108.215 54.331C108.335 54.0137 108.396 53.661 108.396 53.2727C108.396 52.8892 108.336 52.5436 108.218 52.2358C108.102 51.9257 107.926 51.6806 107.689 51.5007C107.455 51.3184 107.16 51.2273 106.805 51.2273C106.464 51.2273 106.177 51.3137 105.945 51.4865C105.713 51.657 105.538 51.8961 105.42 52.2038C105.301 52.5092 105.242 52.8655 105.242 53.2727ZM110.512 56V50.5455H111.322V51.3693H111.379C111.478 51.0994 111.658 50.8804 111.918 50.7124C112.179 50.5443 112.472 50.4602 112.799 50.4602C112.861 50.4602 112.938 50.4614 113.03 50.4638C113.122 50.4661 113.192 50.4697 113.239 50.4744V51.3267C113.211 51.3196 113.146 51.3089 113.044 51.2947C112.945 51.2782 112.839 51.2699 112.728 51.2699C112.463 51.2699 112.226 51.3255 112.018 51.4368C111.812 51.5457 111.649 51.6972 111.528 51.8913C111.409 52.0831 111.35 52.3021 111.35 52.5483V56H110.512ZM116.354 56.1136C115.828 56.1136 115.375 55.9976 114.994 55.7656C114.615 55.5312 114.323 55.2045 114.117 54.7855C113.913 54.3641 113.811 53.8741 113.811 53.3153C113.811 52.7566 113.913 52.2642 114.117 51.8381C114.323 51.4096 114.609 51.0758 114.976 50.8366C115.345 50.5952 115.776 50.4744 116.269 50.4744C116.553 50.4744 116.833 50.5218 117.11 50.6165C117.387 50.7112 117.639 50.8651 117.867 51.0781C118.094 51.2888 118.275 51.5682 118.41 51.9162C118.545 52.2642 118.612 52.6927 118.612 53.2017V53.5568H114.408V52.8324H117.76C117.76 52.5246 117.698 52.25 117.575 52.0085C117.455 51.767 117.282 51.5765 117.057 51.4368C116.834 51.2971 116.572 51.2273 116.269 51.2273C115.935 51.2273 115.646 51.3101 115.402 51.4759C115.161 51.6392 114.975 51.8523 114.845 52.1151C114.714 52.3778 114.649 52.6596 114.649 52.9602V53.4432C114.649 53.8551 114.72 54.2043 114.862 54.4908C115.007 54.7749 115.207 54.9915 115.462 55.1406C115.718 55.2874 116.015 55.3608 116.354 55.3608C116.574 55.3608 116.773 55.33 116.95 55.2685C117.13 55.2045 117.285 55.1098 117.416 54.9844C117.546 54.8565 117.646 54.6979 117.717 54.5085L118.527 54.7358C118.442 55.0104 118.299 55.2519 118.097 55.4602C117.896 55.6662 117.648 55.8272 117.352 55.9432C117.056 56.0568 116.723 56.1136 116.354 56.1136ZM124.181 50.5455L122.164 56H121.312L119.295 50.5455H120.204L121.71 54.892H121.767L123.272 50.5455H124.181ZM125.288 56V50.5455H126.126V56H125.288ZM125.714 49.6364C125.55 49.6364 125.409 49.5807 125.291 49.4695C125.175 49.3582 125.117 49.2244 125.117 49.0682C125.117 48.9119 125.175 48.7782 125.291 48.6669C125.409 48.5556 125.55 48.5 125.714 48.5C125.877 48.5 126.017 48.5556 126.133 48.6669C126.251 48.7782 126.31 48.9119 126.31 49.0682C126.31 49.2244 126.251 49.3582 126.133 49.4695C126.017 49.5807 125.877 49.6364 125.714 49.6364ZM129.948 56.1136C129.422 56.1136 128.969 55.9976 128.587 55.7656C128.209 55.5312 127.916 55.2045 127.71 54.7855C127.507 54.3641 127.405 53.8741 127.405 53.3153C127.405 52.7566 127.507 52.2642 127.71 51.8381C127.916 51.4096 128.203 51.0758 128.57 50.8366C128.939 50.5952 129.37 50.4744 129.862 50.4744C130.146 50.4744 130.427 50.5218 130.704 50.6165C130.981 50.7112 131.233 50.8651 131.46 51.0781C131.688 51.2888 131.869 51.5682 132.004 51.9162C132.139 52.2642 132.206 52.6927 132.206 53.2017V53.5568H128.002V52.8324H131.354C131.354 52.5246 131.292 52.25 131.169 52.0085C131.048 51.767 130.876 51.5765 130.651 51.4368C130.428 51.2971 130.165 51.2273 129.862 51.2273C129.528 51.2273 129.24 51.3101 128.996 51.4759C128.754 51.6392 128.569 51.8523 128.438 52.1151C128.308 52.3778 128.243 52.6596 128.243 52.9602V53.4432C128.243 53.8551 128.314 54.2043 128.456 54.4908C128.6 54.7749 128.801 54.9915 129.056 55.1406C129.312 55.2874 129.609 55.3608 129.948 55.3608C130.168 55.3608 130.367 55.33 130.544 55.2685C130.724 55.2045 130.879 55.1098 131.009 54.9844C131.14 54.8565 131.24 54.6979 131.311 54.5085L132.121 54.7358C132.036 55.0104 131.892 55.2519 131.691 55.4602C131.49 55.6662 131.241 55.8272 130.945 55.9432C130.649 56.0568 130.317 56.1136 129.948 56.1136ZM134.717 56L133.055 50.5455H133.935L135.114 54.7216H135.171L136.336 50.5455H137.231L138.381 54.7074H138.438L139.617 50.5455H140.498L138.836 56H138.012L136.819 51.8097H136.734L135.541 56H134.717ZM146.62 58.1591C146.215 58.1591 145.867 58.107 145.576 58.0028C145.285 57.901 145.042 57.7661 144.848 57.598C144.656 57.4323 144.504 57.2547 144.39 57.0653L145.058 56.5966C145.133 56.696 145.229 56.8097 145.345 56.9375C145.461 57.0677 145.62 57.1802 145.821 57.2749C146.025 57.3719 146.291 57.4205 146.62 57.4205C147.06 57.4205 147.424 57.3139 147.71 57.1009C147.997 56.8878 148.14 56.554 148.14 56.0994V54.9915H148.069C148.007 55.0909 147.92 55.214 147.806 55.3608C147.695 55.5052 147.534 55.6342 147.323 55.7479C147.115 55.8591 146.833 55.9148 146.478 55.9148C146.038 55.9148 145.642 55.8106 145.292 55.6023C144.944 55.3939 144.668 55.0909 144.465 54.6932C144.263 54.2955 144.163 53.8125 144.163 53.2443C144.163 52.6856 144.261 52.1991 144.457 51.7848C144.654 51.3681 144.927 51.0462 145.278 50.8189C145.628 50.5893 146.033 50.4744 146.492 50.4744C146.847 50.4744 147.129 50.5336 147.337 50.652C147.548 50.768 147.709 50.9006 147.82 51.0497C147.934 51.1965 148.022 51.3172 148.083 51.4119H148.168V50.5455H148.978V56.1562C148.978 56.625 148.872 57.0062 148.658 57.2997C148.448 57.5956 148.164 57.8123 147.806 57.9496C147.451 58.0893 147.056 58.1591 146.62 58.1591ZM146.592 55.1619C146.928 55.1619 147.212 55.085 147.444 54.9311C147.676 54.7772 147.852 54.5559 147.973 54.267C148.094 53.9782 148.154 53.6326 148.154 53.2301C148.154 52.8371 148.095 52.4903 147.977 52.1896C147.858 51.889 147.683 51.6534 147.451 51.483C147.219 51.3125 146.933 51.2273 146.592 51.2273C146.237 51.2273 145.941 51.3172 145.704 51.4972C145.47 51.6771 145.293 51.9186 145.175 52.2216C145.059 52.5246 145.001 52.8608 145.001 53.2301C145.001 53.6089 145.06 53.9439 145.178 54.2351C145.299 54.5239 145.477 54.7512 145.711 54.9169C145.948 55.0803 146.241 55.1619 146.592 55.1619ZM152.728 56.1136C152.236 56.1136 151.804 55.9964 151.432 55.7621C151.063 55.5277 150.774 55.1998 150.565 54.7784C150.359 54.357 150.256 53.8646 150.256 53.3011C150.256 52.733 150.359 52.237 150.565 51.8132C150.774 51.3894 151.063 51.0604 151.432 50.826C151.804 50.5916 152.236 50.4744 152.728 50.4744C153.22 50.4744 153.651 50.5916 154.021 50.826C154.392 51.0604 154.681 51.3894 154.887 51.8132C155.095 52.237 155.2 52.733 155.2 53.3011C155.2 53.8646 155.095 54.357 154.887 54.7784C154.681 55.1998 154.392 55.5277 154.021 55.7621C153.651 55.9964 153.22 56.1136 152.728 56.1136ZM152.728 55.3608C153.102 55.3608 153.41 55.2649 153.651 55.0732C153.893 54.8814 154.072 54.6293 154.188 54.3168C154.304 54.0043 154.362 53.6657 154.362 53.3011C154.362 52.9366 154.304 52.5968 154.188 52.282C154.072 51.9671 153.893 51.7126 153.651 51.5185C153.41 51.3243 153.102 51.2273 152.728 51.2273C152.354 51.2273 152.046 51.3243 151.805 51.5185C151.563 51.7126 151.385 51.9671 151.269 52.282C151.153 52.5968 151.095 52.9366 151.095 53.3011C151.095 53.6657 151.153 54.0043 151.269 54.3168C151.385 54.6293 151.563 54.8814 151.805 55.0732C152.046 55.2649 152.354 55.3608 152.728 55.3608ZM158.851 50.5455V51.2557H156.024V50.5455H158.851ZM156.848 49.2386H157.686V54.4375C157.686 54.6742 157.721 54.8518 157.789 54.9702C157.86 55.0862 157.95 55.1643 158.059 55.2045C158.17 55.2424 158.288 55.2614 158.411 55.2614C158.503 55.2614 158.579 55.2566 158.638 55.2472C158.697 55.2353 158.745 55.2259 158.78 55.2188L158.951 55.9716C158.894 55.9929 158.814 56.0142 158.713 56.0355C158.611 56.0592 158.482 56.071 158.326 56.071C158.089 56.071 157.857 56.0201 157.63 55.9183C157.405 55.8165 157.218 55.6615 157.068 55.4531C156.922 55.2448 156.848 54.982 156.848 54.6648V49.2386ZM162.484 50.5455V51.2557H159.657V50.5455H162.484ZM160.481 49.2386H161.319V54.4375C161.319 54.6742 161.353 54.8518 161.422 54.9702C161.493 55.0862 161.583 55.1643 161.692 55.2045C161.803 55.2424 161.92 55.2614 162.044 55.2614C162.136 55.2614 162.212 55.2566 162.271 55.2472C162.33 55.2353 162.377 55.2259 162.413 55.2188L162.583 55.9716C162.527 55.9929 162.447 56.0142 162.345 56.0355C162.244 56.0592 162.115 56.071 161.958 56.071C161.722 56.071 161.49 56.0201 161.262 55.9183C161.037 55.8165 160.85 55.6615 160.701 55.4531C160.554 55.2448 160.481 54.982 160.481 54.6648V49.2386ZM165.973 56.1136C165.447 56.1136 164.994 55.9976 164.613 55.7656C164.234 55.5312 163.942 55.2045 163.736 54.7855C163.532 54.3641 163.43 53.8741 163.43 53.3153C163.43 52.7566 163.532 52.2642 163.736 51.8381C163.942 51.4096 164.228 51.0758 164.595 50.8366C164.964 50.5952 165.395 50.4744 165.888 50.4744C166.172 50.4744 166.452 50.5218 166.729 50.6165C167.006 50.7112 167.258 50.8651 167.486 51.0781C167.713 51.2888 167.894 51.5682 168.029 51.9162C168.164 52.2642 168.231 52.6927 168.231 53.2017V53.5568H164.027V52.8324H167.379C167.379 52.5246 167.318 52.25 167.195 52.0085C167.074 51.767 166.901 51.5765 166.676 51.4368C166.454 51.2971 166.191 51.2273 165.888 51.2273C165.554 51.2273 165.265 51.3101 165.021 51.4759C164.78 51.6392 164.594 51.8523 164.464 52.1151C164.333 52.3778 164.268 52.6596 164.268 52.9602V53.4432C164.268 53.8551 164.339 54.2043 164.481 54.4908C164.626 54.7749 164.826 54.9915 165.082 55.1406C165.337 55.2874 165.634 55.3608 165.973 55.3608C166.193 55.3608 166.392 55.33 166.57 55.2685C166.749 55.2045 166.905 55.1098 167.035 54.9844C167.165 54.8565 167.266 54.6979 167.337 54.5085L168.146 54.7358C168.061 55.0104 167.918 55.2519 167.717 55.4602C167.515 55.6662 167.267 55.8272 166.971 55.9432C166.675 56.0568 166.342 56.1136 165.973 56.1136ZM170.344 52.7188V56H169.506V50.5455H170.316V51.3977H170.387C170.515 51.1207 170.709 50.8982 170.969 50.7301C171.23 50.5597 171.566 50.4744 171.978 50.4744C172.347 50.4744 172.67 50.5502 172.947 50.7017C173.224 50.8509 173.44 51.0781 173.594 51.3835C173.748 51.6866 173.824 52.0701 173.824 52.5341V56H172.986V52.5909C172.986 52.1624 172.875 51.8286 172.653 51.5895C172.43 51.348 172.125 51.2273 171.736 51.2273C171.469 51.2273 171.23 51.2853 171.019 51.4013C170.811 51.5173 170.646 51.6866 170.525 51.9091C170.405 52.1316 170.344 52.4015 170.344 52.7188ZM180.597 50.5455V51.2557H177.657V50.5455H180.597ZM178.538 56V49.7926C178.538 49.4801 178.611 49.2197 178.758 49.0114C178.905 48.803 179.095 48.6468 179.33 48.5426C179.564 48.4384 179.811 48.3864 180.072 48.3864C180.278 48.3864 180.446 48.4029 180.576 48.4361C180.706 48.4692 180.803 48.5 180.867 48.5284L180.626 49.2528C180.583 49.2386 180.524 49.2209 180.448 49.1996C180.375 49.1783 180.278 49.1676 180.157 49.1676C179.88 49.1676 179.68 49.2375 179.557 49.3771C179.436 49.5168 179.376 49.7216 179.376 49.9915V56H178.538ZM181.772 56V50.5455H182.582V51.3693H182.638C182.738 51.0994 182.918 50.8804 183.178 50.7124C183.439 50.5443 183.732 50.4602 184.059 50.4602C184.12 50.4602 184.197 50.4614 184.29 50.4638C184.382 50.4661 184.452 50.4697 184.499 50.4744V51.3267C184.471 51.3196 184.406 51.3089 184.304 51.2947C184.204 51.2782 184.099 51.2699 183.988 51.2699C183.723 51.2699 183.486 51.3255 183.278 51.4368C183.072 51.5457 182.908 51.6972 182.788 51.8913C182.669 52.0831 182.61 52.3021 182.61 52.5483V56H181.772ZM187.543 56.1136C187.05 56.1136 186.618 55.9964 186.246 55.7621C185.877 55.5277 185.588 55.1998 185.38 54.7784C185.174 54.357 185.071 53.8646 185.071 53.3011C185.071 52.733 185.174 52.237 185.38 51.8132C185.588 51.3894 185.877 51.0604 186.246 50.826C186.618 50.5916 187.05 50.4744 187.543 50.4744C188.035 50.4744 188.466 50.5916 188.835 50.826C189.207 51.0604 189.496 51.3894 189.702 51.8132C189.91 52.237 190.014 52.733 190.014 53.3011C190.014 53.8646 189.91 54.357 189.702 54.7784C189.496 55.1998 189.207 55.5277 188.835 55.7621C188.466 55.9964 188.035 56.1136 187.543 56.1136ZM187.543 55.3608C187.917 55.3608 188.224 55.2649 188.466 55.0732C188.707 54.8814 188.886 54.6293 189.002 54.3168C189.118 54.0043 189.176 53.6657 189.176 53.3011C189.176 52.9366 189.118 52.5968 189.002 52.282C188.886 51.9671 188.707 51.7126 188.466 51.5185C188.224 51.3243 187.917 51.2273 187.543 51.2273C187.168 51.2273 186.861 51.3243 186.619 51.5185C186.378 51.7126 186.199 51.9671 186.083 52.282C185.967 52.5968 185.909 52.9366 185.909 53.3011C185.909 53.6657 185.967 54.0043 186.083 54.3168C186.199 54.6293 186.378 54.8814 186.619 55.0732C186.861 55.2649 187.168 55.3608 187.543 55.3608ZM191.293 56V50.5455H192.103V51.3977H192.174C192.288 51.1065 192.471 50.8804 192.725 50.7195C192.978 50.5561 193.282 50.4744 193.637 50.4744C193.997 50.4744 194.296 50.5561 194.536 50.7195C194.777 50.8804 194.965 51.1065 195.1 51.3977H195.157C195.297 51.116 195.506 50.8923 195.786 50.7266C196.065 50.5585 196.4 50.4744 196.791 50.4744C197.278 50.4744 197.677 50.6271 197.987 50.9325C198.297 51.2356 198.453 51.7079 198.453 52.3494V56H197.614V52.3494C197.614 51.947 197.504 51.6593 197.284 51.4865C197.064 51.3137 196.805 51.2273 196.506 51.2273C196.123 51.2273 195.826 51.3433 195.615 51.5753C195.404 51.8049 195.299 52.0961 195.299 52.4489V56H194.447V52.2642C194.447 51.9541 194.346 51.7043 194.145 51.5149C193.944 51.3232 193.685 51.2273 193.367 51.2273C193.149 51.2273 192.946 51.2853 192.756 51.4013C192.569 51.5173 192.418 51.6783 192.302 51.8842C192.188 52.0878 192.131 52.3234 192.131 52.5909V56H191.293ZM202.911 56V48.7273H203.749V51.4119H203.82C203.882 51.3172 203.967 51.1965 204.076 51.0497C204.187 50.9006 204.346 50.768 204.552 50.652C204.76 50.5336 205.042 50.4744 205.397 50.4744C205.856 50.4744 206.261 50.5893 206.611 50.8189C206.962 51.0485 207.235 51.3741 207.432 51.7955C207.628 52.2169 207.726 52.714 207.726 53.2869C207.726 53.8646 207.628 54.3653 207.432 54.7891C207.235 55.2105 206.963 55.5372 206.615 55.7692C206.267 55.9988 205.866 56.1136 205.411 56.1136C205.061 56.1136 204.78 56.0556 204.569 55.9396C204.359 55.8213 204.196 55.6875 204.083 55.5384C203.969 55.3868 203.882 55.2614 203.82 55.1619H203.721V56H202.911ZM203.735 53.2727C203.735 53.6847 203.795 54.0481 203.916 54.3629C204.037 54.6754 204.213 54.9205 204.445 55.098C204.677 55.2732 204.961 55.3608 205.297 55.3608C205.648 55.3608 205.94 55.2685 206.174 55.0838C206.411 54.8968 206.589 54.6458 206.707 54.331C206.828 54.0137 206.888 53.661 206.888 53.2727C206.888 52.8892 206.829 52.5436 206.711 52.2358C206.595 51.9257 206.418 51.6806 206.182 51.5007C205.947 51.3184 205.652 51.2273 205.297 51.2273C204.956 51.2273 204.67 51.3137 204.438 51.4865C204.206 51.657 204.031 51.8961 203.912 52.2038C203.794 52.5092 203.735 52.8655 203.735 53.2727ZM210.613 56.1278C210.268 56.1278 209.954 56.0627 209.672 55.9325C209.391 55.8 209.167 55.6094 209.001 55.3608C208.835 55.1098 208.753 54.8068 208.753 54.4517C208.753 54.1392 208.814 53.8859 208.937 53.6918C209.06 53.4953 209.225 53.3414 209.431 53.2301C209.637 53.1188 209.864 53.036 210.113 52.9815C210.364 52.9247 210.616 52.8797 210.869 52.8466C211.2 52.804 211.469 52.772 211.675 52.7507C211.883 52.727 212.035 52.688 212.13 52.6335C212.227 52.5791 212.275 52.4844 212.275 52.3494V52.321C212.275 51.9706 212.179 51.6984 211.988 51.5043C211.798 51.3101 211.511 51.2131 211.125 51.2131C210.725 51.2131 210.411 51.3007 210.184 51.4759C209.956 51.651 209.797 51.8381 209.704 52.0369L208.909 51.7528C209.051 51.4214 209.24 51.1634 209.477 50.9787C209.716 50.7917 209.977 50.6615 210.258 50.5881C210.542 50.5123 210.822 50.4744 211.096 50.4744C211.272 50.4744 211.473 50.4957 211.7 50.5384C211.93 50.5786 212.151 50.6626 212.364 50.7905C212.58 50.9183 212.758 51.1113 212.9 51.3693C213.042 51.6274 213.113 51.973 213.113 52.4062V56H212.275V55.2614H212.233C212.176 55.3797 212.081 55.5064 211.949 55.6413C211.816 55.7763 211.64 55.8911 211.419 55.9858C211.199 56.0805 210.931 56.1278 210.613 56.1278ZM210.741 55.375C211.073 55.375 211.352 55.3099 211.579 55.1797C211.809 55.0495 211.982 54.8814 212.098 54.6754C212.216 54.4695 212.275 54.2528 212.275 54.0256V53.2585C212.24 53.3011 212.162 53.3402 212.041 53.3757C211.923 53.4089 211.785 53.4384 211.629 53.4645C211.475 53.4882 211.325 53.5095 211.178 53.5284C211.034 53.545 210.916 53.5592 210.826 53.571C210.609 53.5994 210.405 53.6456 210.216 53.7095C210.029 53.7711 209.877 53.8646 209.761 53.9901C209.647 54.1132 209.591 54.2812 209.591 54.4943C209.591 54.7855 209.698 55.0057 209.914 55.1548C210.132 55.3016 210.407 55.375 210.741 55.375ZM216.859 56.1136C216.348 56.1136 215.907 55.9929 215.538 55.7514C215.169 55.5099 214.884 55.1773 214.686 54.7536C214.487 54.3298 214.387 53.8456 214.387 53.3011C214.387 52.7472 214.489 52.2583 214.693 51.8345C214.899 51.4084 215.185 51.0758 215.552 50.8366C215.921 50.5952 216.352 50.4744 216.845 50.4744C217.228 50.4744 217.574 50.5455 217.882 50.6875C218.189 50.8295 218.442 51.0284 218.638 51.2841C218.835 51.5398 218.956 51.8381 219.004 52.179H218.166C218.102 51.9304 217.96 51.7102 217.74 51.5185C217.522 51.3243 217.228 51.2273 216.859 51.2273C216.532 51.2273 216.246 51.3125 216 51.483C215.756 51.651 215.565 51.889 215.428 52.1967C215.293 52.5021 215.225 52.8608 215.225 53.2727C215.225 53.6941 215.292 54.0611 215.424 54.3736C215.559 54.6861 215.749 54.9287 215.992 55.1016C216.239 55.2744 216.527 55.3608 216.859 55.3608C217.077 55.3608 217.274 55.3229 217.452 55.2472C217.63 55.1714 217.78 55.0625 217.903 54.9205C218.026 54.7784 218.114 54.608 218.166 54.4091H219.004C218.956 54.7311 218.839 55.0211 218.652 55.2791C218.468 55.5348 218.223 55.7384 217.917 55.8899C217.614 56.0391 217.261 56.1136 216.859 56.1136ZM221.01 54.0114L220.996 52.9744H221.166L223.553 50.5455H224.59L222.047 53.1165H221.976L221.01 54.0114ZM220.229 56V48.7273H221.067V56H220.229ZM223.695 56L221.564 53.3011L222.161 52.7188L224.76 56H223.695ZM227.731 56.1136C227.205 56.1136 226.752 55.9976 226.371 55.7656C225.992 55.5312 225.699 55.2045 225.494 54.7855C225.29 54.3641 225.188 53.8741 225.188 53.3153C225.188 52.7566 225.29 52.2642 225.494 51.8381C225.699 51.4096 225.986 51.0758 226.353 50.8366C226.722 50.5952 227.153 50.4744 227.646 50.4744C227.93 50.4744 228.21 50.5218 228.487 50.6165C228.764 50.7112 229.016 50.8651 229.244 51.0781C229.471 51.2888 229.652 51.5682 229.787 51.9162C229.922 52.2642 229.989 52.6927 229.989 53.2017V53.5568H225.785V52.8324H229.137C229.137 52.5246 229.075 52.25 228.952 52.0085C228.832 51.767 228.659 51.5765 228.434 51.4368C228.211 51.2971 227.949 51.2273 227.646 51.2273C227.312 51.2273 227.023 51.3101 226.779 51.4759C226.538 51.6392 226.352 51.8523 226.222 52.1151C226.091 52.3778 226.026 52.6596 226.026 52.9602V53.4432C226.026 53.8551 226.097 54.2043 226.239 54.4908C226.384 54.7749 226.584 54.9915 226.839 55.1406C227.095 55.2874 227.392 55.3608 227.731 55.3608C227.951 55.3608 228.15 55.33 228.327 55.2685C228.507 55.2045 228.662 55.1098 228.793 54.9844C228.923 54.8565 229.023 54.6979 229.094 54.5085L229.904 54.7358C229.819 55.0104 229.676 55.2519 229.474 55.4602C229.273 55.6662 229.025 55.8272 228.729 55.9432C228.433 56.0568 228.1 56.1136 227.731 56.1136ZM232.102 52.7188V56H231.264V50.5455H232.074V51.3977H232.145C232.273 51.1207 232.467 50.8982 232.727 50.7301C232.988 50.5597 233.324 50.4744 233.736 50.4744C234.105 50.4744 234.428 50.5502 234.705 50.7017C234.982 50.8509 235.198 51.0781 235.351 51.3835C235.505 51.6866 235.582 52.0701 235.582 52.5341V56H234.744V52.5909C234.744 52.1624 234.633 51.8286 234.41 51.5895C234.188 51.348 233.882 51.2273 233.494 51.2273C233.227 51.2273 232.988 51.2853 232.777 51.4013C232.569 51.5173 232.404 51.6866 232.283 51.9091C232.163 52.1316 232.102 52.4015 232.102 52.7188ZM239.173 56.1136C238.719 56.1136 238.318 55.9988 237.97 55.7692C237.622 55.5372 237.349 55.2105 237.153 54.7891C236.956 54.3653 236.858 53.8646 236.858 53.2869C236.858 52.714 236.956 52.2169 237.153 51.7955C237.349 51.3741 237.623 51.0485 237.973 50.8189C238.323 50.5893 238.728 50.4744 239.188 50.4744C239.543 50.4744 239.823 50.5336 240.029 50.652C240.238 50.768 240.396 50.9006 240.505 51.0497C240.616 51.1965 240.703 51.3172 240.764 51.4119H240.835V48.7273H241.673V56H240.864V55.1619H240.764C240.703 55.2614 240.615 55.3868 240.502 55.5384C240.388 55.6875 240.226 55.8213 240.015 55.9396C239.804 56.0556 239.524 56.1136 239.173 56.1136ZM239.287 55.3608C239.623 55.3608 239.907 55.2732 240.139 55.098C240.371 54.9205 240.548 54.6754 240.668 54.3629C240.789 54.0481 240.85 53.6847 240.85 53.2727C240.85 52.8655 240.79 52.5092 240.672 52.2038C240.554 51.8961 240.378 51.657 240.146 51.4865C239.914 51.3137 239.628 51.2273 239.287 51.2273C238.932 51.2273 238.636 51.3184 238.399 51.5007C238.165 51.6806 237.988 51.9257 237.87 52.2358C237.754 52.5436 237.696 52.8892 237.696 53.2727C237.696 53.661 237.755 54.0137 237.874 54.331C237.994 54.6458 238.172 54.8968 238.406 55.0838C238.643 55.2685 238.937 55.3608 239.287 55.3608ZM243.935 56.0568C243.76 56.0568 243.61 55.9941 243.484 55.8686C243.359 55.7431 243.296 55.5928 243.296 55.4176C243.296 55.2424 243.359 55.0921 243.484 54.9666C243.61 54.8411 243.76 54.7784 243.935 54.7784C244.111 54.7784 244.261 54.8411 244.386 54.9666C244.512 55.0921 244.575 55.2424 244.575 55.4176C244.575 55.5336 244.545 55.6402 244.486 55.7372C244.429 55.8343 244.352 55.9124 244.255 55.9716C244.16 56.0284 244.054 56.0568 243.935 56.0568ZM246.689 56.0568C246.514 56.0568 246.364 55.9941 246.238 55.8686C246.113 55.7431 246.05 55.5928 246.05 55.4176C246.05 55.2424 246.113 55.0921 246.238 54.9666C246.364 54.8411 246.514 54.7784 246.689 54.7784C246.865 54.7784 247.015 54.8411 247.14 54.9666C247.266 55.0921 247.329 55.2424 247.329 55.4176C247.329 55.5336 247.299 55.6402 247.24 55.7372C247.183 55.8343 247.106 55.9124 247.009 55.9716C246.914 56.0284 246.808 56.0568 246.689 56.0568ZM249.443 56.0568C249.268 56.0568 249.118 55.9941 248.992 55.8686C248.867 55.7431 248.804 55.5928 248.804 55.4176C248.804 55.2424 248.867 55.0921 248.992 54.9666C249.118 54.8411 249.268 54.7784 249.443 54.7784C249.618 54.7784 249.769 54.8411 249.894 54.9666C250.02 55.0921 250.082 55.2424 250.082 55.4176C250.082 55.5336 250.053 55.6402 249.994 55.7372C249.937 55.8343 249.86 55.9124 249.763 55.9716C249.668 56.0284 249.562 56.0568 249.443 56.0568Z" fill="white"/>
<rect x="14" y="16" width="68" height="22" rx="8" fill="#65C6C5" fill-opacity="0.57"/>
<path d="M21.2463 22.4688V31H20.1155V22.4688H21.2463ZM23.9029 26.0137V31H22.8189V24.6602H23.8443L23.9029 26.0137ZM23.6451 27.5898L23.1939 27.5723C23.1978 27.1387 23.2623 26.7383 23.3873 26.3711C23.5123 26 23.688 25.6777 23.9146 25.4043C24.1412 25.1309 24.4107 24.9199 24.7232 24.7715C25.0396 24.6191 25.3892 24.543 25.772 24.543C26.0845 24.543 26.3658 24.5859 26.6158 24.6719C26.8658 24.7539 27.0787 24.8867 27.2545 25.0703C27.4341 25.2539 27.5709 25.4922 27.6646 25.7852C27.7584 26.0742 27.8052 26.4277 27.8052 26.8457V31H26.7154V26.834C26.7154 26.502 26.6666 26.2363 26.5689 26.0371C26.4713 25.834 26.3287 25.6875 26.1412 25.5977C25.9537 25.5039 25.7232 25.457 25.4498 25.457C25.1802 25.457 24.9341 25.5137 24.7115 25.627C24.4927 25.7402 24.3033 25.8965 24.1431 26.0957C23.9869 26.2949 23.8638 26.5234 23.774 26.7812C23.688 27.0352 23.6451 27.3047 23.6451 27.5898ZM29.2958 22.4688H32.12C32.7606 22.4688 33.3016 22.5664 33.743 22.7617C34.1884 22.957 34.5262 23.2461 34.7567 23.6289C34.9911 24.0078 35.1083 24.4746 35.1083 25.0293C35.1083 25.4199 35.0282 25.7773 34.868 26.1016C34.7118 26.4219 34.4852 26.6953 34.1884 26.9219C33.8954 27.1445 33.5438 27.3105 33.1337 27.4199L32.8173 27.543H30.163L30.1512 26.623H32.1552C32.5614 26.623 32.8993 26.5527 33.1688 26.4121C33.4384 26.2676 33.6415 26.0742 33.7782 25.832C33.9149 25.5898 33.9833 25.3223 33.9833 25.0293C33.9833 24.7012 33.9188 24.4141 33.7899 24.168C33.661 23.9219 33.4579 23.7324 33.1805 23.5996C32.9071 23.4629 32.5536 23.3945 32.12 23.3945H30.4266V31H29.2958V22.4688ZM34.2821 31L32.2079 27.1328L33.3856 27.127L35.4891 30.9297V31H34.2821ZM38.8371 31.1172C38.3957 31.1172 37.9953 31.043 37.6359 30.8945C37.2805 30.7422 36.9738 30.5293 36.716 30.2559C36.4621 29.9824 36.2668 29.6582 36.1301 29.2832C35.9934 28.9082 35.925 28.498 35.925 28.0527V27.8066C35.925 27.291 36.0012 26.832 36.1535 26.4297C36.3059 26.0234 36.5129 25.6797 36.7746 25.3984C37.0363 25.1172 37.3332 24.9043 37.6652 24.7598C37.9973 24.6152 38.341 24.543 38.6965 24.543C39.1496 24.543 39.5402 24.6211 39.8684 24.7773C40.2004 24.9336 40.4719 25.1523 40.6828 25.4336C40.8938 25.7109 41.05 26.0391 41.1516 26.418C41.2531 26.793 41.3039 27.2031 41.3039 27.6484V28.1348H36.5695V27.25H40.2199V27.168C40.2043 26.8867 40.1457 26.6133 40.0441 26.3477C39.9465 26.082 39.7902 25.8633 39.5754 25.6914C39.3605 25.5195 39.0676 25.4336 38.6965 25.4336C38.4504 25.4336 38.2238 25.4863 38.0168 25.5918C37.8098 25.6934 37.632 25.8457 37.4836 26.0488C37.3352 26.252 37.2199 26.5 37.1379 26.793C37.0559 27.0859 37.0148 27.4238 37.0148 27.8066V28.0527C37.0148 28.3535 37.0559 28.6367 37.1379 28.9023C37.2238 29.1641 37.3469 29.3945 37.507 29.5938C37.6711 29.793 37.8684 29.9492 38.0988 30.0625C38.3332 30.1758 38.5988 30.2324 38.8957 30.2324C39.2785 30.2324 39.6027 30.1543 39.8684 29.998C40.134 29.8418 40.3664 29.6328 40.5656 29.3711L41.2219 29.8926C41.0852 30.0996 40.9113 30.2969 40.7004 30.4844C40.4895 30.6719 40.2297 30.8242 39.9211 30.9414C39.6164 31.0586 39.2551 31.1172 38.8371 31.1172ZM44.7866 30.2266C45.0445 30.2266 45.2827 30.1738 45.5015 30.0684C45.7202 29.9629 45.8999 29.8184 46.0405 29.6348C46.1812 29.4473 46.2612 29.2344 46.2808 28.9961H47.312C47.2925 29.3711 47.1655 29.7207 46.9312 30.0449C46.7007 30.3652 46.398 30.625 46.023 30.8242C45.648 31.0195 45.2359 31.1172 44.7866 31.1172C44.3101 31.1172 43.8941 31.0332 43.5386 30.8652C43.187 30.6973 42.8941 30.4668 42.6597 30.1738C42.4292 29.8809 42.2554 29.5449 42.1382 29.166C42.0249 28.7832 41.9683 28.3789 41.9683 27.9531V27.707C41.9683 27.2812 42.0249 26.8789 42.1382 26.5C42.2554 26.1172 42.4292 25.7793 42.6597 25.4863C42.8941 25.1934 43.187 24.9629 43.5386 24.7949C43.8941 24.627 44.3101 24.543 44.7866 24.543C45.2827 24.543 45.7163 24.6445 46.0874 24.8477C46.4585 25.0469 46.7495 25.3203 46.9605 25.668C47.1753 26.0117 47.2925 26.4023 47.312 26.8398H46.2808C46.2612 26.5781 46.187 26.3418 46.0581 26.1309C45.9331 25.9199 45.7612 25.752 45.5425 25.627C45.3277 25.498 45.0757 25.4336 44.7866 25.4336C44.4546 25.4336 44.1753 25.5 43.9487 25.6328C43.7261 25.7617 43.5484 25.9375 43.4155 26.1602C43.2866 26.3789 43.1929 26.623 43.1343 26.8926C43.0796 27.1582 43.0523 27.4297 43.0523 27.707V27.9531C43.0523 28.2305 43.0796 28.5039 43.1343 28.7734C43.189 29.043 43.2808 29.2871 43.4097 29.5059C43.5425 29.7246 43.7202 29.9004 43.9429 30.0332C44.1695 30.1621 44.4507 30.2266 44.7866 30.2266ZM47.9237 27.9004V27.7656C47.9237 27.3086 47.9901 26.8848 48.1229 26.4941C48.2557 26.0996 48.4471 25.7578 48.6971 25.4688C48.9471 25.1758 49.2498 24.9492 49.6053 24.7891C49.9608 24.625 50.3592 24.543 50.8006 24.543C51.2459 24.543 51.6463 24.625 52.0018 24.7891C52.3612 24.9492 52.6659 25.1758 52.9159 25.4688C53.1698 25.7578 53.3631 26.0996 53.4959 26.4941C53.6287 26.8848 53.6952 27.3086 53.6952 27.7656V27.9004C53.6952 28.3574 53.6287 28.7812 53.4959 29.1719C53.3631 29.5625 53.1698 29.9043 52.9159 30.1973C52.6659 30.4863 52.3631 30.7129 52.0077 30.877C51.6561 31.0371 51.2577 31.1172 50.8123 31.1172C50.367 31.1172 49.9666 31.0371 49.6112 30.877C49.2557 30.7129 48.951 30.4863 48.6971 30.1973C48.4471 29.9043 48.2557 29.5625 48.1229 29.1719C47.9901 28.7812 47.9237 28.3574 47.9237 27.9004ZM49.0077 27.7656V27.9004C49.0077 28.2168 49.0448 28.5156 49.119 28.7969C49.1932 29.0742 49.3045 29.3203 49.453 29.5352C49.6053 29.75 49.7948 29.9199 50.0213 30.0449C50.2479 30.166 50.5116 30.2266 50.8123 30.2266C51.1092 30.2266 51.369 30.166 51.5916 30.0449C51.8182 29.9199 52.0057 29.75 52.1541 29.5352C52.3026 29.3203 52.4139 29.0742 52.4881 28.7969C52.5662 28.5156 52.6053 28.2168 52.6053 27.9004V27.7656C52.6053 27.4531 52.5662 27.1582 52.4881 26.8809C52.4139 26.5996 52.3006 26.3516 52.1483 26.1367C51.9998 25.918 51.8123 25.7461 51.5858 25.6211C51.3631 25.4961 51.1014 25.4336 50.8006 25.4336C50.5037 25.4336 50.242 25.4961 50.0155 25.6211C49.7928 25.7461 49.6053 25.918 49.453 26.1367C49.3045 26.3516 49.1932 26.5996 49.119 26.8809C49.0448 27.1582 49.0077 27.4531 49.0077 27.7656ZM55.8185 25.6562V31H54.7345V24.6602H55.7892L55.8185 25.6562ZM57.799 24.625L57.7931 25.6328C57.7033 25.6133 57.6173 25.6016 57.5353 25.5977C57.4572 25.5898 57.3673 25.5859 57.2658 25.5859C57.0158 25.5859 56.7951 25.625 56.6037 25.7031C56.4123 25.7812 56.2502 25.8906 56.1173 26.0312C55.9845 26.1719 55.8791 26.3398 55.8009 26.5352C55.7267 26.7266 55.6779 26.9375 55.6545 27.168L55.3498 27.3438C55.3498 26.9609 55.3869 26.6016 55.4611 26.2656C55.5392 25.9297 55.6584 25.6328 55.8185 25.375C55.9787 25.1133 56.1818 24.9102 56.4279 24.7656C56.6779 24.6172 56.9748 24.543 57.3185 24.543C57.3966 24.543 57.4865 24.5527 57.5881 24.5723C57.6896 24.5879 57.7599 24.6055 57.799 24.625ZM62.3598 29.7695V22H63.4497V31H62.4536L62.3598 29.7695ZM58.0942 27.9004V27.7773C58.0942 27.293 58.1528 26.8535 58.27 26.459C58.3911 26.0605 58.561 25.7188 58.7798 25.4336C59.0024 25.1484 59.2661 24.9297 59.5708 24.7773C59.8794 24.6211 60.2231 24.543 60.602 24.543C61.0005 24.543 61.3481 24.6133 61.645 24.7539C61.9458 24.8906 62.1997 25.0918 62.4067 25.3574C62.6177 25.6191 62.7837 25.9355 62.9048 26.3066C63.0259 26.6777 63.1098 27.0977 63.1567 27.5664V28.1055C63.1137 28.5703 63.0298 28.9883 62.9048 29.3594C62.7837 29.7305 62.6177 30.0469 62.4067 30.3086C62.1997 30.5703 61.9458 30.7715 61.645 30.9121C61.3442 31.0488 60.9927 31.1172 60.5903 31.1172C60.2192 31.1172 59.8794 31.0371 59.5708 30.877C59.2661 30.7168 59.0024 30.4922 58.7798 30.2031C58.561 29.9141 58.3911 29.5742 58.27 29.1836C58.1528 28.7891 58.0942 28.3613 58.0942 27.9004ZM59.1841 27.7773V27.9004C59.1841 28.2168 59.2153 28.5137 59.2778 28.791C59.3442 29.0684 59.4458 29.3125 59.5825 29.5234C59.7192 29.7344 59.893 29.9004 60.104 30.0215C60.3149 30.1387 60.5669 30.1973 60.8598 30.1973C61.2192 30.1973 61.5141 30.1211 61.7446 29.9688C61.979 29.8164 62.1665 29.6152 62.3071 29.3652C62.4477 29.1152 62.5571 28.8438 62.6352 28.5508V27.1387C62.5884 26.9238 62.52 26.7168 62.4302 26.5176C62.3442 26.3145 62.2309 26.1348 62.0903 25.9785C61.9536 25.8184 61.7837 25.6914 61.5805 25.5977C61.3813 25.5039 61.145 25.457 60.8716 25.457C60.5747 25.457 60.3188 25.5195 60.104 25.6445C59.893 25.7656 59.7192 25.9336 59.5825 26.1484C59.4458 26.3594 59.3442 26.6055 59.2778 26.8867C59.2153 27.1641 59.1841 27.4609 59.1841 27.7773ZM68.5086 29.3184C68.5086 29.1621 68.4734 29.0176 68.4031 28.8848C68.3367 28.748 68.198 28.625 67.9871 28.5156C67.7801 28.4023 67.4676 28.3047 67.0496 28.2227C66.698 28.1484 66.3797 28.0605 66.0945 27.959C65.8133 27.8574 65.573 27.7344 65.3738 27.5898C65.1785 27.4453 65.0281 27.2754 64.9227 27.0801C64.8172 26.8848 64.7645 26.6562 64.7645 26.3945C64.7645 26.1445 64.8191 25.9082 64.9285 25.6855C65.0418 25.4629 65.2 25.2656 65.4031 25.0938C65.6102 24.9219 65.8582 24.7871 66.1473 24.6895C66.4363 24.5918 66.7586 24.543 67.1141 24.543C67.6219 24.543 68.0555 24.6328 68.4148 24.8125C68.7742 24.9922 69.0496 25.2324 69.241 25.5332C69.4324 25.8301 69.5281 26.1602 69.5281 26.5234H68.4441C68.4441 26.3477 68.3914 26.1777 68.2859 26.0137C68.1844 25.8457 68.034 25.707 67.8348 25.5977C67.6395 25.4883 67.3992 25.4336 67.1141 25.4336C66.8133 25.4336 66.5691 25.4805 66.3816 25.5742C66.198 25.6641 66.0633 25.7793 65.9773 25.9199C65.8953 26.0605 65.8543 26.209 65.8543 26.3652C65.8543 26.4824 65.8738 26.5879 65.9129 26.6816C65.9559 26.7715 66.0301 26.8555 66.1355 26.9336C66.241 27.0078 66.3895 27.0781 66.5809 27.1445C66.7723 27.2109 67.0164 27.2773 67.3133 27.3438C67.8328 27.4609 68.2605 27.6016 68.5965 27.7656C68.9324 27.9297 69.1824 28.1309 69.3465 28.3691C69.5105 28.6074 69.5926 28.8965 69.5926 29.2363C69.5926 29.5137 69.534 29.7676 69.4168 29.998C69.3035 30.2285 69.1375 30.4277 68.9187 30.5957C68.7039 30.7598 68.4461 30.8887 68.1453 30.9824C67.8484 31.0723 67.5145 31.1172 67.1434 31.1172C66.5848 31.1172 66.1121 31.0176 65.7254 30.8184C65.3387 30.6191 65.0457 30.3613 64.8465 30.0449C64.6473 29.7285 64.5477 29.3945 64.5477 29.043H65.6375C65.6531 29.3398 65.7391 29.5762 65.8953 29.752C66.0516 29.9238 66.243 30.0469 66.4695 30.1211C66.6961 30.1914 66.9207 30.2266 67.1434 30.2266C67.4402 30.2266 67.6883 30.1875 67.8875 30.1094C68.0906 30.0312 68.2449 29.9238 68.3504 29.7871C68.4559 29.6504 68.5086 29.4941 68.5086 29.3184ZM76.7983 22.4219V31H75.7143V23.7754L73.5287 24.5723V23.5938L76.6284 22.4219H76.7983Z" fill="white"/>
<path d="M193.753 32V31.3608L196.153 28.733C196.435 28.4252 196.667 28.1577 196.849 27.9304C197.032 27.7008 197.167 27.4853 197.254 27.2841C197.344 27.0805 197.389 26.8674 197.389 26.6449C197.389 26.3892 197.328 26.1679 197.205 25.9808C197.084 25.7938 196.918 25.6494 196.707 25.5476C196.497 25.4458 196.26 25.3949 195.997 25.3949C195.718 25.3949 195.474 25.4529 195.266 25.5689C195.06 25.6825 194.9 25.8423 194.786 26.0483C194.675 26.2543 194.619 26.4957 194.619 26.7727H193.781C193.781 26.3466 193.879 25.9725 194.076 25.6506C194.272 25.3286 194.54 25.0777 194.879 24.8977C195.219 24.7178 195.602 24.6278 196.026 24.6278C196.452 24.6278 196.829 24.7178 197.158 24.8977C197.487 25.0777 197.746 25.3203 197.933 25.6257C198.12 25.9311 198.213 26.2708 198.213 26.6449C198.213 26.9124 198.165 27.174 198.067 27.4297C197.973 27.683 197.807 27.9659 197.57 28.2784C197.336 28.5885 197.01 28.9673 196.594 29.4148L194.96 31.1619V31.2188H198.341V32H193.753ZM200.433 32.0568C200.257 32.0568 200.107 31.9941 199.982 31.8686C199.856 31.7431 199.793 31.5928 199.793 31.4176C199.793 31.2424 199.856 31.0921 199.982 30.9666C200.107 30.8411 200.257 30.7784 200.433 30.7784C200.608 30.7784 200.758 30.8411 200.884 30.9666C201.009 31.0921 201.072 31.2424 201.072 31.4176C201.072 31.5336 201.042 31.6402 200.983 31.7372C200.926 31.8343 200.849 31.9124 200.752 31.9716C200.657 32.0284 200.551 32.0568 200.433 32.0568ZM202.561 32V31.3608L204.962 28.733C205.244 28.4252 205.476 28.1577 205.658 27.9304C205.84 27.7008 205.975 27.4853 206.063 27.2841C206.153 27.0805 206.198 26.8674 206.198 26.6449C206.198 26.3892 206.136 26.1679 206.013 25.9808C205.892 25.7938 205.727 25.6494 205.516 25.5476C205.305 25.4458 205.069 25.3949 204.806 25.3949C204.526 25.3949 204.283 25.4529 204.074 25.5689C203.868 25.6825 203.708 25.8423 203.595 26.0483C203.484 26.2543 203.428 26.4957 203.428 26.7727H202.59C202.59 26.3466 202.688 25.9725 202.885 25.6506C203.081 25.3286 203.349 25.0777 203.687 24.8977C204.028 24.7178 204.41 24.6278 204.834 24.6278C205.26 24.6278 205.638 24.7178 205.967 24.8977C206.296 25.0777 206.554 25.3203 206.741 25.6257C206.928 25.9311 207.022 26.2708 207.022 26.6449C207.022 26.9124 206.973 27.174 206.876 27.4297C206.781 27.683 206.616 27.9659 206.379 28.2784C206.145 28.5885 205.819 28.9673 205.402 29.4148L203.769 31.1619V31.2188H207.15V32H202.561ZM210.946 32.0994C210.458 32.0994 210.027 32.013 209.653 31.8402C209.281 31.665 208.991 31.4247 208.783 31.1193C208.575 30.8116 208.472 30.4612 208.474 30.0682C208.472 29.7604 208.532 29.4763 208.655 29.2159C208.778 28.9531 208.946 28.7341 209.159 28.5589C209.375 28.3814 209.615 28.2689 209.88 28.2216V28.179C209.532 28.089 209.255 27.8937 209.049 27.593C208.843 27.29 208.742 26.9455 208.744 26.5597C208.742 26.1903 208.835 25.8601 209.025 25.5689C209.214 25.2777 209.474 25.0481 209.806 24.88C210.14 24.7119 210.52 24.6278 210.946 24.6278C211.367 24.6278 211.743 24.7119 212.075 24.88C212.406 25.0481 212.667 25.2777 212.856 25.5689C213.048 25.8601 213.145 26.1903 213.147 26.5597C213.145 26.9455 213.04 27.29 212.831 27.593C212.625 27.8937 212.352 28.089 212.011 28.179V28.2216C212.274 28.2689 212.511 28.3814 212.721 28.5589C212.932 28.7341 213.1 28.9531 213.225 29.2159C213.351 29.4763 213.415 29.7604 213.417 30.0682C213.415 30.4612 213.308 30.8116 213.098 31.1193C212.889 31.4247 212.599 31.665 212.228 31.8402C211.858 32.013 211.431 32.0994 210.946 32.0994ZM210.946 31.3182C211.275 31.3182 211.559 31.2649 211.798 31.1584C212.037 31.0518 212.222 30.9015 212.352 30.7074C212.482 30.5133 212.548 30.286 212.551 30.0256C212.548 29.7509 212.477 29.5083 212.338 29.2976C212.198 29.0869 212.007 28.9212 211.766 28.8004C211.527 28.6797 211.253 28.6193 210.946 28.6193C210.636 28.6193 210.359 28.6797 210.115 28.8004C209.873 28.9212 209.683 29.0869 209.543 29.2976C209.406 29.5083 209.338 29.7509 209.341 30.0256C209.338 30.286 209.401 30.5133 209.529 30.7074C209.659 30.9015 209.845 31.0518 210.086 31.1584C210.328 31.2649 210.614 31.3182 210.946 31.3182ZM210.946 27.8665C211.206 27.8665 211.437 27.8144 211.638 27.7102C211.842 27.6061 212.002 27.4605 212.118 27.2734C212.234 27.0864 212.293 26.8674 212.295 26.6165C212.293 26.3703 212.235 26.156 212.121 25.9737C212.007 25.7891 211.85 25.647 211.649 25.5476C211.448 25.4458 211.213 25.3949 210.946 25.3949C210.673 25.3949 210.435 25.4458 210.232 25.5476C210.028 25.647 209.871 25.7891 209.76 25.9737C209.648 26.156 209.594 26.3703 209.596 26.6165C209.594 26.8674 209.65 27.0864 209.763 27.2734C209.879 27.4605 210.039 27.6061 210.243 27.7102C210.446 27.8144 210.681 27.8665 210.946 27.8665ZM217.605 32V26.5455H218.415V27.3977H218.486C218.599 27.1065 218.783 26.8804 219.036 26.7195C219.289 26.5561 219.594 26.4744 219.949 26.4744C220.309 26.4744 220.608 26.5561 220.847 26.7195C221.089 26.8804 221.277 27.1065 221.412 27.3977H221.469C221.608 27.116 221.818 26.8923 222.097 26.7266C222.376 26.5585 222.711 26.4744 223.102 26.4744C223.59 26.4744 223.989 26.6271 224.299 26.9325C224.609 27.2356 224.764 27.7079 224.764 28.3494V32H223.926V28.3494C223.926 27.947 223.816 27.6593 223.596 27.4865C223.376 27.3137 223.116 27.2273 222.818 27.2273C222.434 27.2273 222.137 27.3433 221.927 27.5753C221.716 27.8049 221.611 28.0961 221.611 28.4489V32H220.758V28.2642C220.758 27.9541 220.658 27.7043 220.456 27.5149C220.255 27.3232 219.996 27.2273 219.679 27.2273C219.461 27.2273 219.257 27.2853 219.068 27.4013C218.881 27.5173 218.729 27.6783 218.613 27.8842C218.5 28.0878 218.443 28.3234 218.443 28.5909V32H217.605ZM226.296 32V26.5455H227.134V32H226.296ZM226.722 25.6364C226.559 25.6364 226.418 25.5807 226.3 25.4695C226.184 25.3582 226.126 25.2244 226.126 25.0682C226.126 24.9119 226.184 24.7782 226.3 24.6669C226.418 24.5556 226.559 24.5 226.722 24.5C226.886 24.5 227.026 24.5556 227.142 24.6669C227.26 24.7782 227.319 24.9119 227.319 25.0682C227.319 25.2244 227.26 25.3582 227.142 25.4695C227.026 25.5807 226.886 25.6364 226.722 25.6364ZM229.507 28.7188V32H228.669V26.5455H229.479V27.3977H229.55C229.678 27.1207 229.872 26.8982 230.132 26.7301C230.393 26.5597 230.729 26.4744 231.141 26.4744C231.51 26.4744 231.833 26.5502 232.11 26.7017C232.387 26.8509 232.603 27.0781 232.757 27.3835C232.911 27.6866 232.988 28.0701 232.988 28.5341V32H232.15V28.5909C232.15 28.1624 232.038 27.8286 231.816 27.5895C231.593 27.348 231.288 27.2273 230.9 27.2273C230.632 27.2273 230.393 27.2853 230.182 27.4013C229.974 27.5173 229.809 27.6866 229.689 27.9091C229.568 28.1316 229.507 28.4015 229.507 28.7188ZM235.769 31.0057L235.712 31.3892C235.672 31.6591 235.61 31.9479 235.528 32.2557C235.447 32.5634 235.363 32.8535 235.275 33.1257C235.188 33.398 235.116 33.6146 235.059 33.7756H234.42C234.45 33.6241 234.491 33.424 234.54 33.1754C234.59 32.9268 234.64 32.6487 234.689 32.3409C234.742 32.0355 234.784 31.723 234.817 31.4034L234.86 31.0057H235.769ZM242.677 24.7273V32H241.796V25.6506H241.754L239.978 26.8295V25.9347L241.796 24.7273H242.677ZM244.598 30.5085V29.7841L247.794 24.7273H248.32V25.8494H247.964L245.55 29.6705V29.7273H249.854V30.5085H244.598ZM248.021 32V30.2884V29.951V24.7273H248.859V32H248.021ZM251.468 32.0568C251.292 32.0568 251.142 31.9941 251.017 31.8686C250.891 31.7431 250.828 31.5928 250.828 31.4176C250.828 31.2424 250.891 31.0921 251.017 30.9666C251.142 30.8411 251.292 30.7784 251.468 30.7784C251.643 30.7784 251.793 30.8411 251.919 30.9666C252.044 31.0921 252.107 31.2424 252.107 31.4176C252.107 31.5336 252.077 31.6402 252.018 31.7372C251.961 31.8343 251.884 31.9124 251.787 31.9716C251.693 32.0284 251.586 32.0568 251.468 32.0568ZM255.715 32.0994C255.18 32.0994 254.724 31.9538 254.348 31.6626C253.971 31.3691 253.684 30.9441 253.485 30.3878C253.286 29.8291 253.186 29.1544 253.186 28.3636C253.186 27.5777 253.286 26.9065 253.485 26.3501C253.686 25.7914 253.975 25.3653 254.351 25.0717C254.73 24.7758 255.185 24.6278 255.715 24.6278C256.245 24.6278 256.699 24.7758 257.075 25.0717C257.454 25.3653 257.743 25.7914 257.941 26.3501C258.143 26.9065 258.243 27.5777 258.243 28.3636C258.243 29.1544 258.144 29.8291 257.945 30.3878C257.746 30.9441 257.458 31.3691 257.082 31.6626C256.706 31.9538 256.25 32.0994 255.715 32.0994ZM255.715 31.3182C256.245 31.3182 256.657 31.0625 256.951 30.5511C257.244 30.0398 257.391 29.3106 257.391 28.3636C257.391 27.7339 257.324 27.1977 257.189 26.755C257.056 26.3123 256.864 25.9749 256.613 25.7429C256.365 25.5109 256.065 25.3949 255.715 25.3949C255.189 25.3949 254.779 25.6541 254.483 26.1726C254.187 26.6887 254.039 27.419 254.039 28.3636C254.039 28.9934 254.105 29.5284 254.238 29.9688C254.37 30.4091 254.561 30.7441 254.809 30.9737C255.06 31.2034 255.362 31.3182 255.715 31.3182ZM262.15 24.7273V32H261.269V25.6506H261.226L259.451 26.8295V25.9347L261.269 24.7273H262.15ZM264.436 32.0568C264.261 32.0568 264.111 31.9941 263.985 31.8686C263.86 31.7431 263.797 31.5928 263.797 31.4176C263.797 31.2424 263.86 31.0921 263.985 30.9666C264.111 30.8411 264.261 30.7784 264.436 30.7784C264.612 30.7784 264.762 30.8411 264.887 30.9666C265.013 31.0921 265.076 31.2424 265.076 31.4176C265.076 31.5336 265.046 31.6402 264.987 31.7372C264.93 31.8343 264.853 31.9124 264.756 31.9716C264.661 32.0284 264.555 32.0568 264.436 32.0568ZM266.565 32V31.3608L268.966 28.733C269.248 28.4252 269.48 28.1577 269.662 27.9304C269.844 27.7008 269.979 27.4853 270.067 27.2841C270.157 27.0805 270.202 26.8674 270.202 26.6449C270.202 26.3892 270.14 26.1679 270.017 25.9808C269.896 25.7938 269.731 25.6494 269.52 25.5476C269.309 25.4458 269.072 25.3949 268.81 25.3949C268.53 25.3949 268.286 25.4529 268.078 25.5689C267.872 25.6825 267.712 25.8423 267.599 26.0483C267.487 26.2543 267.432 26.4957 267.432 26.7727H266.594C266.594 26.3466 266.692 25.9725 266.888 25.6506C267.085 25.3286 267.353 25.0777 267.691 24.8977C268.032 24.7178 268.414 24.6278 268.838 24.6278C269.264 24.6278 269.642 24.7178 269.971 24.8977C270.3 25.0777 270.558 25.3203 270.745 25.6257C270.932 25.9311 271.026 26.2708 271.026 26.6449C271.026 26.9124 270.977 27.174 270.88 27.4297C270.785 27.683 270.62 27.9659 270.383 28.2784C270.148 28.5885 269.823 28.9673 269.406 29.4148L267.773 31.1619V31.2188H271.153V32H266.565ZM274.992 32.0994C274.457 32.0994 274.001 31.9538 273.625 31.6626C273.249 31.3691 272.961 30.9441 272.762 30.3878C272.563 29.8291 272.464 29.1544 272.464 28.3636C272.464 27.5777 272.563 26.9065 272.762 26.3501C272.963 25.7914 273.252 25.3653 273.629 25.0717C274.007 24.7758 274.462 24.6278 274.992 24.6278C275.522 24.6278 275.976 24.7758 276.352 25.0717C276.731 25.3653 277.02 25.7914 277.219 26.3501C277.42 26.9065 277.521 27.5777 277.521 28.3636C277.521 29.1544 277.421 29.8291 277.222 30.3878C277.023 30.9441 276.736 31.3691 276.359 31.6626C275.983 31.9538 275.527 32.0994 274.992 32.0994ZM274.992 31.3182C275.522 31.3182 275.934 31.0625 276.228 30.5511C276.522 30.0398 276.668 29.3106 276.668 28.3636C276.668 27.7339 276.601 27.1977 276.466 26.755C276.333 26.3123 276.142 25.9749 275.891 25.7429C275.642 25.5109 275.343 25.3949 274.992 25.3949C274.467 25.3949 274.056 25.6541 273.76 26.1726C273.464 26.6887 273.316 27.419 273.316 28.3636C273.316 28.9934 273.382 29.5284 273.515 29.9688C273.647 30.4091 273.838 30.7441 274.087 30.9737C274.338 31.2034 274.639 31.3182 274.992 31.3182ZM278.87 32V31.3608L281.271 28.733C281.552 28.4252 281.784 28.1577 281.967 27.9304C282.149 27.7008 282.284 27.4853 282.371 27.2841C282.461 27.0805 282.506 26.8674 282.506 26.6449C282.506 26.3892 282.445 26.1679 282.322 25.9808C282.201 25.7938 282.035 25.6494 281.825 25.5476C281.614 25.4458 281.377 25.3949 281.114 25.3949C280.835 25.3949 280.591 25.4529 280.383 25.5689C280.177 25.6825 280.017 25.8423 279.903 26.0483C279.792 26.2543 279.737 26.4957 279.737 26.7727H278.898C278.898 26.3466 278.997 25.9725 279.193 25.6506C279.39 25.3286 279.657 25.0777 279.996 24.8977C280.337 24.7178 280.719 24.6278 281.143 24.6278C281.569 24.6278 281.946 24.7178 282.276 24.8977C282.605 25.0777 282.863 25.3203 283.05 25.6257C283.237 25.9311 283.33 26.2708 283.33 26.6449C283.33 26.9124 283.282 27.174 283.185 27.4297C283.09 27.683 282.924 27.9659 282.688 28.2784C282.453 28.5885 282.128 28.9673 281.711 29.4148L280.077 31.1619V31.2188H283.458V32H278.87ZM284.598 30.5085V29.7841L287.794 24.7273H288.32V25.8494H287.964L285.55 29.6705V29.7273H289.854V30.5085H284.598ZM288.021 32V30.2884V29.951V24.7273H288.859V32H288.021Z" fill="white"/>
<path d="M24.858 79.5455C24.8153 79.1856 24.6425 78.9062 24.3395 78.7074C24.0365 78.5085 23.6648 78.4091 23.2244 78.4091C22.9025 78.4091 22.6207 78.4612 22.3793 78.5653C22.1402 78.6695 21.9531 78.8127 21.8182 78.995C21.6856 79.1773 21.6193 79.3845 21.6193 79.6165C21.6193 79.8106 21.6655 79.9775 21.7578 80.1172C21.8525 80.2545 21.9732 80.3693 22.12 80.4616C22.2668 80.5516 22.4207 80.6262 22.5817 80.6854C22.7427 80.7422 22.8906 80.7884 23.0256 80.8239L23.7642 81.0227C23.9536 81.0724 24.1643 81.1411 24.3963 81.2287C24.6307 81.3163 24.8544 81.4358 25.0675 81.5874C25.2829 81.7365 25.4605 81.9283 25.6001 82.1626C25.7398 82.397 25.8097 82.6847 25.8097 83.0256C25.8097 83.4186 25.7067 83.7737 25.5007 84.0909C25.2971 84.4081 24.9988 84.6603 24.6058 84.8473C24.2152 85.0343 23.7405 85.1278 23.1818 85.1278C22.661 85.1278 22.21 85.0438 21.8288 84.8757C21.45 84.7076 21.1518 84.4732 20.9339 84.1726C20.7185 83.8719 20.5966 83.5227 20.5682 83.125H21.4773C21.5009 83.3996 21.5933 83.6269 21.7543 83.8068C21.9176 83.9844 22.1236 84.117 22.3722 84.2045C22.6231 84.2898 22.893 84.3324 23.1818 84.3324C23.518 84.3324 23.8198 84.2779 24.0874 84.169C24.3549 84.0578 24.5668 83.9039 24.723 83.7074C24.8793 83.5085 24.9574 83.2765 24.9574 83.0114C24.9574 82.7699 24.8899 82.5734 24.755 82.4219C24.62 82.2704 24.4425 82.1473 24.2223 82.0526C24.0021 81.9579 23.7642 81.875 23.5085 81.804L22.6136 81.5483C22.0455 81.3849 21.5956 81.1518 21.2642 80.8487C20.9328 80.5457 20.767 80.1491 20.767 79.6591C20.767 79.2519 20.8771 78.8968 21.0973 78.5938C21.3198 78.2884 21.6181 78.0516 21.9922 77.8835C22.3686 77.7131 22.7888 77.6278 23.2528 77.6278C23.7216 77.6278 24.1383 77.7119 24.5028 77.88C24.8674 78.0457 25.1563 78.273 25.3693 78.5618C25.5848 78.8506 25.6984 79.1785 25.7102 79.5455H24.858ZM27.144 87.0455V79.5455H27.9537V80.4119H28.0531C28.1146 80.3172 28.1999 80.1965 28.3088 80.0497C28.42 79.9006 28.5787 79.768 28.7846 79.652C28.993 79.5336 29.2747 79.4744 29.6298 79.4744C30.0891 79.4744 30.4939 79.5893 30.8443 79.8189C31.1947 80.0485 31.4681 80.3741 31.6646 80.7955C31.8611 81.2169 31.9593 81.714 31.9593 82.2869C31.9593 82.8646 31.8611 83.3653 31.6646 83.7891C31.4681 84.2105 31.1958 84.5372 30.8478 84.7692C30.4998 84.9988 30.0985 85.1136 29.644 85.1136C29.2936 85.1136 29.0131 85.0556 28.8024 84.9396C28.5917 84.8213 28.4295 84.6875 28.3159 84.5384C28.2022 84.3868 28.1146 84.2614 28.0531 84.1619H27.9821V87.0455H27.144ZM27.9679 82.2727C27.9679 82.6847 28.0282 83.0481 28.149 83.3629C28.2697 83.6754 28.4461 83.9205 28.6781 84.098C28.9101 84.2732 29.1942 84.3608 29.5304 84.3608C29.8807 84.3608 30.1731 84.2685 30.4075 84.0838C30.6442 83.8968 30.8218 83.6458 30.9402 83.331C31.0609 83.0137 31.1213 82.661 31.1213 82.2727C31.1213 81.8892 31.0621 81.5436 30.9437 81.2358C30.8277 80.9257 30.6513 80.6806 30.4146 80.5007C30.1802 80.3184 29.8855 80.2273 29.5304 80.2273C29.1895 80.2273 28.903 80.3137 28.671 80.4865C28.439 80.657 28.2638 80.8961 28.1454 81.2038C28.027 81.5092 27.9679 81.8655 27.9679 82.2727ZM35.5247 85.1136C34.9991 85.1136 34.5458 84.9976 34.1646 84.7656C33.7858 84.5312 33.4934 84.2045 33.2875 83.7855C33.0839 83.3641 32.9821 82.8741 32.9821 82.3153C32.9821 81.7566 33.0839 81.2642 33.2875 80.8381C33.4934 80.4096 33.7799 80.0758 34.1468 79.8366C34.5162 79.5952 34.947 79.4744 35.4395 79.4744C35.7235 79.4744 36.0041 79.5218 36.2811 79.6165C36.5581 79.7112 36.8102 79.8651 37.0375 80.0781C37.2647 80.2888 37.4458 80.5682 37.5808 80.9162C37.7157 81.2642 37.7832 81.6927 37.7832 82.2017V82.5568H33.5787V81.8324H36.9309C36.9309 81.5246 36.8694 81.25 36.7463 81.0085C36.6255 80.767 36.4527 80.5765 36.2278 80.4368C36.0053 80.2971 35.7425 80.2273 35.4395 80.2273C35.1056 80.2273 34.8168 80.3101 34.573 80.4759C34.3315 80.6392 34.1457 80.8523 34.0154 81.1151C33.8852 81.3778 33.8201 81.6596 33.8201 81.9602V82.4432C33.8201 82.8551 33.8912 83.2043 34.0332 83.4908C34.1776 83.7749 34.3777 83.9915 34.6333 84.1406C34.889 84.2874 35.1861 84.3608 35.5247 84.3608C35.7449 84.3608 35.9437 84.33 36.1213 84.2685C36.3012 84.2045 36.4563 84.1098 36.5865 83.9844C36.7167 83.8565 36.8173 83.6979 36.8883 83.5085L37.698 83.7358C37.6127 84.0104 37.4695 84.2519 37.2683 84.4602C37.0671 84.6662 36.8185 84.8272 36.5225 84.9432C36.2266 85.0568 35.894 85.1136 35.5247 85.1136ZM40.6632 85.1278C40.3175 85.1278 40.0038 85.0627 39.7221 84.9325C39.4404 84.8 39.2167 84.6094 39.051 84.3608C38.8852 84.1098 38.8024 83.8068 38.8024 83.4517C38.8024 83.1392 38.8639 82.8859 38.987 82.6918C39.1101 82.4953 39.2747 82.3414 39.4806 82.2301C39.6866 82.1188 39.9139 82.036 40.1625 81.9815C40.4134 81.9247 40.6655 81.8797 40.9189 81.8466C41.2503 81.804 41.519 81.772 41.725 81.7507C41.9333 81.727 42.0848 81.688 42.1795 81.6335C42.2766 81.5791 42.3251 81.4844 42.3251 81.3494V81.321C42.3251 80.9706 42.2292 80.6984 42.0375 80.5043C41.8481 80.3101 41.5604 80.2131 41.1745 80.2131C40.7744 80.2131 40.4608 80.3007 40.2335 80.4759C40.0062 80.651 39.8464 80.8381 39.7541 81.0369L38.9586 80.7528C39.1007 80.4214 39.2901 80.1634 39.5268 79.9787C39.7659 79.7917 40.0263 79.6615 40.3081 79.5881C40.5922 79.5123 40.8715 79.4744 41.1461 79.4744C41.3213 79.4744 41.5225 79.4957 41.7498 79.5384C41.9795 79.5786 42.2008 79.6626 42.4139 79.7905C42.6293 79.9183 42.8081 80.1113 42.9501 80.3693C43.0922 80.6274 43.1632 80.973 43.1632 81.4062V85H42.3251V84.2614H42.2825C42.2257 84.3797 42.131 84.5064 41.9984 84.6413C41.8658 84.7763 41.6895 84.8911 41.4693 84.9858C41.2491 85.0805 40.9804 85.1278 40.6632 85.1278ZM40.791 84.375C41.1225 84.375 41.4018 84.3099 41.6291 84.1797C41.8587 84.0495 42.0315 83.8814 42.1475 83.6754C42.2659 83.4695 42.3251 83.2528 42.3251 83.0256V82.2585C42.2896 82.3011 42.2115 82.3402 42.0907 82.3757C41.9724 82.4089 41.835 82.4384 41.6788 82.4645C41.5249 82.4882 41.3746 82.5095 41.2278 82.5284C41.0834 82.545 40.9662 82.5592 40.8762 82.571C40.6584 82.5994 40.4548 82.6456 40.2654 82.7095C40.0784 82.7711 39.9269 82.8646 39.8109 82.9901C39.6973 83.1132 39.6404 83.2812 39.6404 83.4943C39.6404 83.7855 39.7482 84.0057 39.9636 84.1548C40.1814 84.3016 40.4572 84.375 40.791 84.375ZM45.4741 83.0114L45.4599 81.9744H45.6303L48.0167 79.5455H49.0536L46.511 82.1165H46.44L45.4741 83.0114ZM44.6928 85V77.7273H45.5309V85H44.6928ZM48.1587 85L46.0281 82.3011L46.6246 81.7188L49.2241 85H48.1587ZM52.1946 85.1136C51.669 85.1136 51.2157 84.9976 50.8345 84.7656C50.4557 84.5312 50.1634 84.2045 49.9574 83.7855C49.7538 83.3641 49.652 82.8741 49.652 82.3153C49.652 81.7566 49.7538 81.2642 49.9574 80.8381C50.1634 80.4096 50.4498 80.0758 50.8168 79.8366C51.1861 79.5952 51.617 79.4744 52.1094 79.4744C52.3935 79.4744 52.674 79.5218 52.951 79.6165C53.228 79.7112 53.4801 79.8651 53.7074 80.0781C53.9347 80.2888 54.1158 80.5682 54.2507 80.9162C54.3857 81.2642 54.4531 81.6927 54.4531 82.2017V82.5568H50.2486V81.8324H53.6009C53.6009 81.5246 53.5393 81.25 53.4162 81.0085C53.2955 80.767 53.1226 80.5765 52.8977 80.4368C52.6752 80.2971 52.4124 80.2273 52.1094 80.2273C51.7756 80.2273 51.4867 80.3101 51.2429 80.4759C51.0014 80.6392 50.8156 80.8523 50.6854 81.1151C50.5552 81.3778 50.4901 81.6596 50.4901 81.9602V82.4432C50.4901 82.8551 50.5611 83.2043 50.7031 83.4908C50.8475 83.7749 51.0476 83.9915 51.3033 84.1406C51.5589 84.2874 51.8561 84.3608 52.1946 84.3608C52.4148 84.3608 52.6136 84.33 52.7912 84.2685C52.9711 84.2045 53.1262 84.1098 53.2564 83.9844C53.3866 83.8565 53.4872 83.6979 53.5582 83.5085L54.3679 83.7358C54.2827 84.0104 54.1394 84.2519 53.9382 84.4602C53.737 84.6662 53.4884 84.8272 53.1925 84.9432C52.8965 85.0568 52.5639 85.1136 52.1946 85.1136ZM55.728 85V79.5455H56.5376V80.3693H56.5945C56.6939 80.0994 56.8738 79.8804 57.1342 79.7124C57.3946 79.5443 57.6882 79.4602 58.0149 79.4602C58.0765 79.4602 58.1534 79.4614 58.2457 79.4638C58.3381 79.4661 58.4079 79.4697 58.4553 79.4744V80.3267C58.4268 80.3196 58.3617 80.3089 58.2599 80.2947C58.1605 80.2782 58.0552 80.2699 57.9439 80.2699C57.6787 80.2699 57.442 80.3255 57.2337 80.4368C57.0277 80.5457 56.8643 80.6972 56.7436 80.8913C56.6252 81.0831 56.5661 81.3021 56.5661 81.5483V85H55.728ZM61.9913 77.7273V85H61.1106V78.6506H61.068L59.2924 79.8295V78.9347L61.1106 77.7273H61.9913Z" fill="white"/>
<defs>
<filter id="filter0_d_3_7" x="0" y="0" width="307" height="102" filterUnits="userSpaceOnUse" color-interpolation-filters="sRGB">
<feFlood flood-opacity="0" result="BackgroundImageFix"/>
<feColorMatrix in="SourceAlpha" type="matrix" values="0 0 0 0 0 0 0 0 0 0 0 0 0 0 0 0 0 0 127 0" result="hardAlpha"/>
<feOffset/>
<feGaussianBlur stdDeviation="2"/>
<feComposite in2="hardAlpha" operator="out"/>
<feColorMatrix type="matrix" values="0 0 0 0 0.494118 0 0 0 0 0.964706 0 0 0 0 0.941176 0 0 0 1 0"/>
<feBlend mode="normal" in2="BackgroundImageFix" result="effect1_dropShadow_3_7"/>
<feBlend mode="normal" in="SourceGraphic" in2="effect1_dropShadow_3_7" result="shape"/>
</filter>
</defs>
</svg>
